<svg xmlns="http://www.w3.org/2000/svg" viewBox="0 0 155.14 155.14"><defs><style>.cls-1{fill:#ada5ff;}</style></defs><title>ExitIcon_1</title><g id="Layer_2" data-name="Layer 2"><g id="OBJECTS"><path class="cls-1" d="M149.77,114.91a18.34,18.34,0,0,1,0,25.93l-8.92,8.93a18.34,18.34,0,0,1-25.93,0L77.57,112.42,40.22,149.77a18.34,18.34,0,0,1-25.93,0l-8.92-8.93a18.34,18.34,0,0,1,0-25.93L42.72,77.57,5.37,40.22a18.34,18.34,0,0,1,0-25.93l8.92-8.92a18.34,18.34,0,0,1,25.93,0L77.57,42.72,114.92,5.37a18.34,18.34,0,0,1,25.93,0l8.92,8.92a18.34,18.34,0,0,1,0,25.93L112.42,77.57Z"/></g></g></svg>