<svg xmlns="http://www.w3.org/2000/svg" xmlns:xlink="http://www.w3.org/1999/xlink" viewBox="0 0 432.07 432.07"><defs><style>.cls-1{fill:none;}.cls-2{fill:#e4e3ff;}.cls-3{clip-path:url(#clip-path);}.cls-4{fill:#ada5ff;}.cls-5{fill:#7b79b7;}.cls-6{fill:#fff;}.cls-7{fill:#707070;}.cls-8{fill:#7cbda4;}.cls-9{fill:#d8735a;}.cls-10{fill:#a5a5a5;}.cls-11{fill:#ffd560;}</style><clipPath id="clip-path"><circle class="cls-1" cx="216.04" cy="216.04" r="216.04"/></clipPath></defs><title>LoginSVG_2</title><g id="Layer_2" data-name="Layer 2"><g id="OBJECTS"><circle class="cls-2" cx="216.04" cy="216.04" r="216.04"/><g class="cls-3"><path class="cls-4" d="M199.4,191.3c-31.85-24.28-44.4-61.24-49.31-88A211.19,211.19,0,0,1,147,50.67l.88.09A210.29,210.29,0,0,0,151,103.21c4.89,26.56,17.36,63.29,49,87.39Z"/><path class="cls-4" d="M157.94,32.86a49.57,49.57,0,0,1,2.47,12.5c.28,4.23.35,8.54-.94,12.83a37.24,37.24,0,0,1-2.62,6.06c-1,1.9-1.92,3.79-2.82,5.69s-1.77,3.82-2.63,5.76-1.7,3.87-2.69,5.83L147.44,84l-2-2.61c-2-2.6-3.91-5.36-5.9-8s-3.93-5.3-5.79-8S130,60,128,57.45q-1.44-2-3-3.76a12.52,12.52,0,0,0-3.67-3l.08-.52a9.92,9.92,0,0,1,5.16,1.53,29.94,29.94,0,0,1,4.33,3,57.11,57.11,0,0,1,7.21,7.4,67.19,67.19,0,0,1,5.8,8.38,92.1,92.1,0,0,1,4.86,9l-3.31-.1a52.14,52.14,0,0,0,7.13-10.11,26.9,26.9,0,0,0,2.2-5.76,27.49,27.49,0,0,0,.82-5.95c0-4,.27-8,.51-12.13a112.92,112.92,0,0,1,1.29-12.49Z"/><path class="cls-4" d="M119.22,55.87A95.22,95.22,0,0,1,126.91,64q3.6,4.19,6.92,8.55c2.21,2.91,4,6.11,6.13,9.13a29.94,29.94,0,0,0,3.47,4.21,17.75,17.75,0,0,0,2,1.74,6.65,6.65,0,0,0,2.17,1.1l-1,.38c1.25-2.09,2.44-4.2,3.74-6.28.65-1,1.32-2.08,2-3.09.35-.52.74-1,1.12-1.5l.59-.74.5-.65a41.71,41.71,0,0,0,3.61-5.67c1.09-2,2.06-4.09,3-6.16a58.38,58.38,0,0,0,2.38-6.22,18.56,18.56,0,0,0,.67-3,29.6,29.6,0,0,0,.13-3.26c-.08-4.55-.7-9.31-1.12-14.14l.5-.16a46.09,46.09,0,0,1,3,6.68,43.12,43.12,0,0,1,2,7.17,24.33,24.33,0,0,1,.44,3.9,19.54,19.54,0,0,1-.44,4.09,33.37,33.37,0,0,1-2.45,7.27,48.45,48.45,0,0,1-3.69,6.53,38.48,38.48,0,0,1-4.75,6c-.23.23-.49.48-.71.67l-.65.56-1.28,1.17c-.86.78-1.71,1.6-2.54,2.44A47,47,0,0,0,148.15,90l-.4.56-.56-.18a10.15,10.15,0,0,1-2.68-1.51q-1.14-.89-2.21-1.81l-4.25-3.72a62.42,62.42,0,0,1-8-7.93,88.06,88.06,0,0,1-6.31-9.2,63.83,63.83,0,0,1-5-10.05Z"/><path class="cls-4" d="M176,51.39a44,44,0,0,1-.23,7.11,57.18,57.18,0,0,1-1.18,7c-.27,1.16-.55,2.31-.91,3.45s-.72,2.28-1.13,3.4c-.19.57-.42,1.13-.66,1.68s-.49,1.1-.74,1.65a33.38,33.38,0,0,1-1.81,3.17,24.87,24.87,0,0,1-2.25,2.94,18,18,0,0,1-1.26,1.37l-1.38,1.27c-.89.81-1.79,1.48-2.63,2.29s-1.66,1.6-2.46,2.44a45.83,45.83,0,0,0-7.66,11.34l-.68,1.44-1.66-1c-1.89-1.12-3.79-2.24-5.66-3.4L138.16,94c-3.7-2.36-7.41-4.67-11-7.14l-10.76-7.42c-1.8-1.22-3.61-2.42-5.45-3.57a39.13,39.13,0,0,0-5.74-3.06l.08-.52A22,22,0,0,1,112,73.45a57.5,57.5,0,0,1,6.34,2.4,99.84,99.84,0,0,1,11.84,6.3,124.33,124.33,0,0,1,10.88,7.69c1.75,1.36,3.52,2.7,5.22,4.13s3.34,2.92,5,4.45l-2.34.46c.76-1,1.51-1.89,2.29-2.8l2.32-2.67c1.54-1.77,3.07-3.53,4.57-5.33s3-3.65,4.35-5.5l.89-1.37a16.27,16.27,0,0,0,.78-1.44c.53-.95.93-2,1.4-3,1.75-4,3.45-8.2,5-12.47s3.09-8.62,4.88-13Z"/><path class="cls-4" d="M195.16,71.72A123.31,123.31,0,0,1,184.7,82.15Q182,84.61,179.18,87t-5.69,4.56c-1.94,1.45-4,2.81-5.88,4.27s-3.85,3.06-5.64,4.71a105.42,105.42,0,0,0-10,10.76l-.6.73-1.13-.52c-2.24-1-4.52-2-6.73-3.06s-4.4-2.19-6.58-3.32-4.36-2.25-6.52-3.41S126,99.27,124,98.27a88.55,88.55,0,0,0-13.19-5.12c-4.6-1.42-9.33-2.59-14.16-3.73l0-.53a47.41,47.41,0,0,1,7.51-.4c1.26,0,2.51.08,3.76.18s2.51.21,3.76.4,2.5.39,3.75.62,2.49.52,3.72.89a47.69,47.69,0,0,1,7.28,2.6,71.08,71.08,0,0,1,6.59,3.69c2.11,1.28,4.19,2.59,6.29,3.9s4.19,2.6,6.23,4,4,2.84,6.07,4.25l-1.74.21a105,105,0,0,0,10.83-9.91c1.69-1.79,3.21-3.67,4.81-5.6a70.57,70.57,0,0,1,5.05-5.53,62.53,62.53,0,0,1,5.59-4.84q2.9-2.29,5.93-4.39a95.12,95.12,0,0,1,12.7-7.63Z"/><path class="cls-4" d="M212.69,166.21a18.94,18.94,0,0,1-3.37,7,16.3,16.3,0,0,1-5.71,5.17c-1.18.61-2.42,1.1-3.61,1.62s-2.32,1.1-3.46,1.7-2.29,1.2-3.54,1.77a12.27,12.27,0,0,1-4.16,1.1l1.76-.76a14.32,14.32,0,0,1-1.75,2.42c-.64.73-1.31,1.43-2,2.1a16.33,16.33,0,0,1-4.87,3.24,16.83,16.83,0,0,1-5.76,1.35,12.29,12.29,0,0,1-5.76-1v-.53c1.77-.79,3.34-1.45,4.81-2.24s2.85-1.58,4.19-2.43l4.07-2.55c.68-.44,1.36-.9,2-1.4s1.33-1,1.91-1.45l1.28-.91.48.15a10.15,10.15,0,0,0,3.22.49,8.93,8.93,0,0,0,3.43-.77,9.86,9.86,0,0,0,3-2,25.49,25.49,0,0,0,2.33-2.84,30,30,0,0,1,5-5.1,39.7,39.7,0,0,1,6.1-4.42Z"/><path class="cls-4" d="M95,113.33a29.31,29.31,0,0,1,6.81-4.65,37.07,37.07,0,0,1,7.8-2.89,40.21,40.21,0,0,1,8.32-1.15,28.56,28.56,0,0,1,8.38,1,55.82,55.82,0,0,1,7.73,2.92c2.49,1.09,4.92,2.26,7.39,3.31,4.9,2.22,9.88,4.15,14.85,6.49l-2.53.91a18.3,18.3,0,0,1,.7-2,17.54,17.54,0,0,1,.84-1.78,24.77,24.77,0,0,1,2.07-3.31,33.73,33.73,0,0,1,5.36-5.65,40.18,40.18,0,0,1,6.38-4.34,70.72,70.72,0,0,1,6.69-3.22c4.49-1.91,9-3.55,13.26-5.48,2.17-.94,4.25-2,6.34-3.14a61.61,61.61,0,0,0,6-3.92l.39.36A30.46,30.46,0,0,1,197,92.57,48,48,0,0,1,191,97.15a111.83,111.83,0,0,1-12.9,7c-4.31,2.11-8.57,4-12.19,6.55a34,34,0,0,0-7.14,7c-.33.45-.65.91-1,1.37s-.6,1-.8,1.34l-1.08,2-1.46-1.06c-2.1-1.53-4.32-3-6.59-4.39a58.47,58.47,0,0,0-7.1-3.58,52.41,52.41,0,0,0-15.28-3.6c-.64-.05-1.27-.11-1.9-.18s-1.25-.07-1.87-.11-1.24-.1-1.87-.08l-1.89,0a59.49,59.49,0,0,0-7.57.53,71.45,71.45,0,0,0-15.13,3.85Z"/><path class="cls-4" d="M101.36,125.5a29.69,29.69,0,0,1,6.49-3.95,40.34,40.34,0,0,1,7.21-2.5,36.53,36.53,0,0,1,15.29-.69,32.42,32.42,0,0,1,3.74.92c1.22.36,2.39.77,3.59,1.16l7.08,2.39c2.36.78,4.72,1.55,7.07,2.42,1.17.46,2.36.88,3.52,1.42.59.25,1.17.53,1.75.83.29.15.58.31.87.48a8.53,8.53,0,0,1,.93.62h-2.06c1.61-1.76,3.21-3.49,4.91-5.14s3.48-3.2,5.26-4.76a82.94,82.94,0,0,1,11.46-8.59c1-.64,2.12-1.21,3.2-1.78s2-1,3-1.57c2-1.07,4-2.16,6-3.31l12.14-7,.35.4a71.73,71.73,0,0,1-10.16,10c-1.85,1.51-3.75,3-5.75,4.28-1,.68-2,1.31-3,1.94s-1.89,1.16-2.83,1.8c-3.75,2.48-7.56,5.08-11.3,7.78l-5.59,4.13-5.67,4.07-1.32.94-.75-1a5.25,5.25,0,0,0-.52-.51c-.21-.18-.43-.37-.66-.54-.46-.36-.93-.71-1.43-1A32,32,0,0,0,151.1,127a38.1,38.1,0,0,0-6.81-2.56,47.51,47.51,0,0,0-7.19-1.34c-1.22-.11-2.44-.25-3.64-.32s-2.38-.11-3.55-.13c-2.36,0-4.69,0-7,0s-4.7.23-7,.53a103.22,103.22,0,0,0-14.21,2.8Z"/><path class="cls-4" d="M100.2,133.49a51.65,51.65,0,0,1,7.73-2.12,73.83,73.83,0,0,1,7.92-1.14,76.27,76.27,0,0,1,8-.33c1.34,0,2.68,0,4,.15.67,0,1.34.1,2,.18l2,.28c5.34.83,10.4,2.6,15.48,4.15,2.53.79,5.07,1.54,7.59,2.38,1.26.42,2.52.85,3.78,1.32a33.74,33.74,0,0,1,3.81,1.62l-1.82.47a53.28,53.28,0,0,1,9.34-14.56A33.6,33.6,0,0,1,177,120c.69-.44,1.28-.75,1.89-1.09l1.85-1c1.23-.67,2.47-1.3,3.72-1.94q7.49-3.79,15.22-7.1c5.16-2.21,10.35-4.33,15.74-6.09l.24.47c-4.53,3.4-9.26,6.43-14,9.37S192,118.4,187.08,121c-1.24.65-2.47,1.3-3.72,1.92l-1.87.93c-.62.31-1.29.62-1.79.92a29.84,29.84,0,0,0-6.18,4.54,77,77,0,0,0-5.53,5.85,66.73,66.73,0,0,0-5,6.46l-.84,1.25-1-.78a13.82,13.82,0,0,0-1.53-1c-.55-.32-1.11-.63-1.68-.93a38.29,38.29,0,0,0-3.54-1.57,45.74,45.74,0,0,0-7.48-2.17,109.33,109.33,0,0,0-15.5-1.42l-7.69-.44c-2.57-.14-5.15-.22-7.73-.29-5.18-.14-10.38-.16-15.69-.28Z"/><path class="cls-4" d="M103.16,148.14a62.09,62.09,0,0,1,7.83-2.33c2.64-.64,5.32-1.1,8-1.51a67.13,67.13,0,0,1,16.43-.51,38.29,38.29,0,0,1,4.13.71c1.33.31,2.64.65,3.95,1l7.82,2.18c2.61.69,5.22,1.32,7.86,1.86s5.27,1.07,7.94,1.6l-1.44.85a20,20,0,0,1,4.54-8.49,22.87,22.87,0,0,1,1.58-1.75c.53-.58,1.1-1.11,1.66-1.64s1.15-1,1.75-1.53,1.18-1,1.79-1.46c2.43-1.89,4.93-3.63,7.5-5.26s5.17-3.18,7.85-4.58a139.52,139.52,0,0,1,16.56-7.23,125.71,125.71,0,0,1,17.31-5.12l.18.5c-5.23,3-10.51,5.75-15.75,8.53L195,132.3c-5.17,2.79-10.38,5.49-15.19,8.72-.61.39-1.19.81-1.79,1.22s-1.18.83-1.74,1.27c-1.17.83-2.28,1.73-3.35,2.64a16.65,16.65,0,0,0-5,6.4l-.44,1.18-1-.34c-2.52-.85-5.1-1.63-7.7-2.25a72,72,0,0,0-7.88-1.54c-2.65-.37-5.33-.6-8-.79l-4-.29c-1.3,0-2.57-.15-3.87-.16-2.58-.1-5.2-.14-7.82-.16s-5.27,0-7.92.1c-5.31.09-10.64.35-16.07.35Z"/><path class="cls-4" d="M104.06,161.71a94.91,94.91,0,0,1,17.36-3.57c2.94-.31,5.89-.56,8.87-.63a48.47,48.47,0,0,1,9,.5,44.89,44.89,0,0,1,4.46.88L148,160c2.85.7,5.71,1.29,8.61,1.7s5.8.71,8.72.91,5.86.25,8.76.3l-1.56.73a72.45,72.45,0,0,1,10-13.13,56,56,0,0,1,13-10.56c.62-.34,1.25-.72,1.85-1l1.81-.9c1.2-.61,2.42-1.18,3.63-1.76,2.42-1.18,4.87-2.3,7.32-3.41,4.93-2.18,9.89-4.31,15-6.09l.25.47c-4.32,3.32-8.81,6.29-13.34,9.21-2.27,1.44-4.55,2.87-6.86,4.24-1.15.69-2.29,1.4-3.46,2.07l-1.74,1-1.63,1c-1.09.63-2.12,1.4-3.18,2.1s-2.09,1.48-3.08,2.3c-2.07,1.53-4,3.27-5.95,5s-3.75,3.65-5.56,5.55-3.62,3.87-5.29,5.83l-.75.88-.81-.15L165,164.59c-2.89-.5-5.78-1-8.69-1.32s-5.83-.58-8.77-.75l-4.41-.23c-.73,0-1.42,0-2.13-.06s-1.41,0-2.12,0c-5.68,0-11.44,0-17.23.12s-11.63.17-17.55-.09Z"/><path class="cls-4" d="M131.84,175A41.65,41.65,0,0,1,144,171a48.65,48.65,0,0,1,6.38-.7c1.07-.06,2.15-.07,3.23,0s2.07.1,3.11.19c4.12.35,8.27,1.17,12.43,1.36a65.6,65.6,0,0,0,12.45-.68l-1.08.64c.31-.61.57-1.06.86-1.56l.87-1.46c.59-1,1.18-1.91,1.82-2.83,1.25-1.85,2.61-3.6,4-5.32s2.76-3.4,4.41-5.14c.81-.84,1.67-1.61,2.52-2.39s1.78-1.45,2.69-2.14a60.23,60.23,0,0,1,11.81-6.59c1-.47,2.07-.85,3.12-1.25s2.1-.76,3.17-1.08a46,46,0,0,1,6.52-1.6l.19.49c-3.71,2.45-7.41,4.75-11,7.15s-7.09,4.83-10.4,7.4l-2.45,1.94c-.77.69-1.59,1.32-2.35,2-1.48,1.34-3,2.9-4.55,4.46s-3,3.11-4.56,4.63l-2.3,2.29c-.74.75-1.52,1.59-2.12,2.3l-.57.68-.51,0a83.81,83.81,0,0,0-12.51-.13c-4.16.3-8.33,1.13-12.53,1.33-1,.06-2.12.06-3.13.06l-3,0q-3,0-6.07.07c-4.07.1-8.18.31-12.41.4Z"/><path class="cls-4" d="M151.07,185.46a21.47,21.47,0,0,1,8.1-4.74,29.77,29.77,0,0,1,4.55-1.17,19.79,19.79,0,0,1,2.34-.28c.39,0,.78,0,1.18,0s.73,0,1.1,0c2.9.13,6,.49,8.88,0a25.64,25.64,0,0,0,8.31-3l-.51.31c.93-1.17,1.87-2.33,2.87-3.42S190,171,191,170a69.74,69.74,0,0,1,6.65-5.8,74.16,74.16,0,0,1,7.39-4.82,52.35,52.35,0,0,1,8.1-3.83l.31.43a66.44,66.44,0,0,1-5.89,6.69c-2.06,2.08-4.21,4.06-6.41,5.94s-4.58,3.55-6.92,5.25c-1.17.85-2.32,1.73-3.52,2.55s-2.42,1.61-3.67,2.39l-.48.31h0a87.18,87.18,0,0,0-9,1.77c-2.92.75-5.78,2.08-8.85,2.74-.38.07-.77.16-1.14.21s-.71.12-1.06.16c-.71.09-1.41.19-2.12.25l-4.26.53-8.82,1.18Z"/><path class="cls-4" d="M217.84,327c45.56,1.94,83.62-21.36,107.52-41.25a243.59,243.59,0,0,0,41.36-44l-.83-.56A242.56,242.56,0,0,1,324.7,285c-23.76,19.77-61.58,42.93-106.81,41Z"/><path class="cls-4" d="M370.28,218.09A57.07,57.07,0,0,0,359,227.27c-3.35,3.51-6.57,7.25-8.6,12a42.93,42.93,0,0,0-2.17,7.24c-.54,2.4-1.11,4.73-1.72,7.07s-1.27,4.65-1.94,7-1.36,4.65-1.94,7.09l-.74,3.13,3.7-.8c3.68-.79,7.34-1.85,11-2.71s7.32-1.78,10.92-2.8,7.19-2.05,10.79-2.89c1.8-.45,3.6-.82,5.41-1.08a14.2,14.2,0,0,1,5.42,0l.31-.52a11.19,11.19,0,0,0-5.62-2.43,33.91,33.91,0,0,0-6-.5,65,65,0,0,0-11.71,1.23,76.73,76.73,0,0,0-11.2,3.13,105.4,105.4,0,0,0-10.8,4.32l3,2.34A59.91,59.91,0,0,1,348.23,254a31,31,0,0,1,2.32-6.67,31.73,31.73,0,0,1,3.65-5.83c2.9-3.49,5.65-7.25,8.46-11a130.35,130.35,0,0,0,8-11.92Z"/><path class="cls-4" d="M387.09,266.61a108.31,108.31,0,0,0-12.63,1.49q-6.21,1.05-12.3,2.45c-4.06.94-8,2.42-12,3.54a34.1,34.1,0,0,1-6.11,1.16,20.15,20.15,0,0,1-3,0,7.52,7.52,0,0,1-2.7-.62l.56,1c.45-2.76,1-5.47,1.36-8.25.2-1.39.38-2.79.5-4.2.08-.71.09-1.42.13-2.13l0-1.08,0-.94a48,48,0,0,1,1-7.62c.53-2.56,1.21-5.1,1.93-7.6a67.31,67.31,0,0,1,2.5-7.21,21.43,21.43,0,0,1,1.61-3.12,34.17,34.17,0,0,1,2.28-3c3.41-3.94,7.45-7.67,11.36-11.61l-.32-.51a52.84,52.84,0,0,0-7.55,3.65,49.57,49.57,0,0,0-7,4.83,28,28,0,0,0-3.25,3.11,22.56,22.56,0,0,0-2.62,3.91,38.51,38.51,0,0,0-3.21,8.18A55.78,55.78,0,0,0,336,250.6a44.18,44.18,0,0,0-.25,8.72c0,.37.08.78.13,1.11l.15,1,.26,2c.18,1.32.31,2.66.42,4a53.93,53.93,0,0,1,.1,8.11l-.06.79.62.24a11.48,11.48,0,0,0,3.44.63c1.1,0,2.18,0,3.25,0l6.43-.16a71,71,0,0,0,12.76-1.14,100.53,100.53,0,0,0,12.25-3.47,73.11,73.11,0,0,0,11.73-5.18Z"/><path class="cls-4" d="M341,221.19a50.73,50.73,0,0,0-5,6.41,66,66,0,0,0-4.11,7c-.61,1.21-1.21,2.43-1.74,3.69s-1,2.52-1.52,3.81c-.25.64-.46,1.29-.66,2s-.39,1.33-.57,2a38.41,38.41,0,0,0-.75,4.11,28.55,28.55,0,0,0-.2,4.23,20.72,20.72,0,0,0,.09,2.12l.27,2.12c.18,1.36.47,2.61.61,3.94s.27,2.62.35,3.94A52.68,52.68,0,0,1,326,282.1l-.47,1.77,2.17.35c2.46.39,4.95.81,7.42,1.15l7.43.93c5,.63,9.88,1.32,14.83,1.77l14.82,1.35c2.46.24,4.92.51,7.36.84a44.24,44.24,0,0,1,7.25,1.5l.31-.52a24.8,24.8,0,0,0-6.73-3.91,64.9,64.9,0,0,0-7.29-2.52,112.86,112.86,0,0,0-14.93-3.12,140.87,140.87,0,0,0-15.12-1.2c-2.52-.09-5-.19-7.57-.19s-5.05.12-7.6.27l1.7,2.11c.08-1.45.07-2.77.06-4.13l-.06-4c0-2.68-.08-5.35-.07-8s.09-5.38.25-8l.23-1.85a18.73,18.73,0,0,1,.38-1.84c.23-1.22.65-2.43,1-3.64,1.44-4.83,3-9.73,4.79-14.63s3.64-9.84,5.3-15Z"/><path class="cls-4" d="M309.34,225a141.17,141.17,0,0,0,1.45,16.81q.57,4.15,1.27,8.26t1.61,8.17c.63,2.7,1.4,5.38,2,8.05s1.1,5.5,1.45,8.27a120.81,120.81,0,0,1,.83,16.79v1.08l1.37.37c2.71.74,5.4,1.56,8.11,2.23s5.44,1.29,8.16,1.89,5.45,1.21,8.18,1.77,5.54,1,8,1.62A100,100,0,0,1,367,305.49c5,2.11,10,4.55,15.06,7.07l.37-.48a53.52,53.52,0,0,0-6.25-5.84c-1.1-.91-2.24-1.77-3.41-2.6s-2.34-1.65-3.57-2.39-2.46-1.48-3.72-2.2-2.55-1.36-3.89-1.94a53.83,53.83,0,0,0-8.24-3,80.37,80.37,0,0,0-8.45-1.58c-2.77-.42-5.56-.79-8.34-1.17s-5.56-.78-8.35-1-5.6-.47-8.4-.71l1.36,1.45A120.1,120.1,0,0,1,319,274.42c-.16-2.8-.1-5.57-.07-8.44a80.89,80.89,0,0,0-.34-8.55,71.51,71.51,0,0,0-1.31-8.34c-.56-2.75-1.21-5.48-1.94-8.19a108.29,108.29,0,0,0-5.46-16Z"/><path class="cls-4" d="M224.69,295.26a21.82,21.82,0,0,0-2.23,8.64,18.64,18.64,0,0,0,1.18,8.72c.58,1.39,1.3,2.74,2,4.07s1.21,2.67,1.76,4,1.11,2.73,1.78,4.15a13.89,13.89,0,0,0,2.81,4l-1-2a16.45,16.45,0,0,0-.25,3.41c0,1.11.08,2.21.22,3.32A18.61,18.61,0,0,0,232.8,340a19,19,0,0,0,4,5.4,13.86,13.86,0,0,0,5.78,3.3l.38-.47c-1-2-1.84-3.71-2.54-5.48s-1.32-3.47-1.86-5.2l-1.66-5.22c-.27-.89-.52-1.79-.72-2.7s-.4-1.88-.6-2.67l-.45-1.74-.53-.22a11.44,11.44,0,0,1-3.16-1.93,10.1,10.1,0,0,1-2.42-3.18,11.25,11.25,0,0,1-1.1-3.95,29.25,29.25,0,0,1,.05-4.2,34.32,34.32,0,0,0-.63-8.15,45.29,45.29,0,0,0-2.06-8.34Z"/><path class="cls-4" d="M366,334.81a33.42,33.42,0,0,0-2.51-9.07,42,42,0,0,0-4.67-8.24,45.43,45.43,0,0,0-6.4-7.09,32.21,32.21,0,0,0-8.06-5.21,63,63,0,0,0-8.87-3.08c-3-.86-5.94-1.61-8.87-2.49-5.9-1.63-11.65-3.58-17.69-5.16l1.53,2.65a21.1,21.1,0,0,0,.83-2.23,20.21,20.21,0,0,0,.57-2.18,28.48,28.48,0,0,0,.63-4.43,38.63,38.63,0,0,0-.52-8.88,45.8,45.8,0,0,0-2.37-8.47,80.34,80.34,0,0,0-3.46-7.72c-2.5-5-5.18-9.67-7.52-14.51-1.2-2.41-2.23-4.88-3.21-7.39a70.21,70.21,0,0,1-2.35-7.83l-.6,0a34.94,34.94,0,0,0,0,8.53,54.76,54.76,0,0,0,1.8,8.36A127.21,127.21,0,0,0,300.35,266c2.21,5,4.55,9.76,5.81,14.66a38.95,38.95,0,0,1,1,11.4c0,.64-.1,1.27-.17,1.9s-.19,1.3-.29,1.77l-.51,2.52,2,.13c2.94.19,6,.48,9,1a66.08,66.08,0,0,1,8.81,2,59.11,59.11,0,0,1,15.95,8q.89.63,1.79,1.23c.59.41,1.14.86,1.71,1.28s1.15.82,1.69,1.3l1.67,1.34a67.15,67.15,0,0,1,6.2,6A80.86,80.86,0,0,1,365.38,335Z"/><path class="cls-4" d="M351.5,340.86a33.82,33.82,0,0,0-2.75-8.22,45.73,45.73,0,0,0-4.44-7.47,41.24,41.24,0,0,0-12.8-11.78,36.55,36.55,0,0,0-3.94-1.93c-1.33-.58-2.65-1.07-4-1.6l-7.92-3.08c-2.62-1-5.24-2.09-7.93-3-1.35-.45-2.7-1-4.11-1.32-.7-.2-1.41-.39-2.14-.55-.36-.08-.73-.15-1.11-.21a9.65,9.65,0,0,0-1.26-.14l1.81,1.5c-.1-2.73-.24-5.42-.5-8.11s-.68-5.35-1.09-8A94.66,94.66,0,0,0,295.68,271c-.42-1.31-1-2.62-1.48-3.9s-1-2.38-1.49-3.59c-1-2.41-1.93-4.85-2.83-7.32l-5.43-15-.6.1a82.12,82.12,0,0,0,1.5,16.21c.5,2.67,1.1,5.34,1.86,8,.36,1.32.79,2.63,1.22,3.93s.79,2.4,1.14,3.65c1.44,4.92,2.84,10,4.12,15.1l1.84,7.71,1.95,7.72.45,1.79,1.35-.29a6,6,0,0,1,.83-.07c.32,0,.64,0,1,0,.66,0,1.33.05,2,.14a36.16,36.16,0,0,1,4,.71,43,43,0,0,1,7.81,2.72,53.57,53.57,0,0,1,7.24,4.07c1.14.8,2.31,1.57,3.41,2.37s2.15,1.64,3.19,2.49c2.07,1.7,4.12,3.39,6.11,5.16s3.92,3.64,5.74,5.62a116.7,116.7,0,0,1,10.31,12.85Z"/><path class="cls-4" d="M346.64,348.73a58.47,58.47,0,0,0-5.17-7.51,83.38,83.38,0,0,0-6.05-6.79,86.08,86.08,0,0,0-6.74-6.14c-1.18-1-2.36-1.92-3.61-2.8-.62-.45-1.24-.89-1.87-1.31L321.25,323c-5.26-3.17-11-5.32-16.52-7.67-2.78-1.16-5.54-2.35-8.36-3.46-1.41-.55-2.82-1.1-4.26-1.6a38.1,38.1,0,0,0-4.51-1.36l1.25,1.74A61.27,61.27,0,0,0,291.42,291a38.4,38.4,0,0,0-1.73-10.19c-.27-.89-.56-1.59-.85-2.34l-.87-2.23c-.58-1.48-1.2-3-1.81-4.43q-3.73-8.8-8-17.37c-2.86-5.71-5.83-11.38-9.23-16.85l-.56.24c1.45,6.3,3.34,12.41,5.32,18.48s4.15,12.06,6.51,18c.6,1.47,1.2,2.95,1.83,4.41l.95,2.19c.32.72.67,1.48.88,2.11a34,34,0,0,1,2.05,8.51,88.2,88.2,0,0,1,.51,9.18A76.61,76.61,0,0,1,286,310l-.19,1.71,1.43,0a15.68,15.68,0,0,1,2.07.24c.71.11,1.43.26,2.15.41a43.28,43.28,0,0,1,4.24,1.21,51.59,51.59,0,0,1,8.1,3.56c5.19,2.85,9.9,6.58,14.53,10.08l7,5.24c2.34,1.75,4.64,3.57,6.95,5.4,4.61,3.66,9.15,7.45,13.86,11.22Z"/><path class="cls-4" d="M333.31,359.44a70.32,70.32,0,0,0-5.1-7.77c-1.83-2.5-3.83-4.86-5.87-7.19A75.76,75.76,0,0,0,308.41,332a43.18,43.18,0,0,0-4.12-2.4c-1.38-.7-2.77-1.36-4.18-2l-8.41-3.8c-2.78-1.3-5.52-2.65-8.21-4.11s-5.38-2.91-8.08-4.4l.63,1.8a23,23,0,0,0,2.28-10.79,26.22,26.22,0,0,0-.09-2.69c0-.9-.14-1.78-.24-2.66s-.24-1.76-.4-2.62-.28-1.74-.49-2.59c-.72-3.43-1.63-6.8-2.66-10.11s-2.16-6.58-3.48-9.76a158.37,158.37,0,0,0-9.1-18.46,142.38,142.38,0,0,0-11.31-17.15l-.52.3c2.36,6.45,4.92,12.73,7.44,19L265,278.38c2.45,6.23,5,12.41,6.82,18.77.24.79.44,1.58.66,2.38s.42,1.59.59,2.39c.41,1.59.71,3.18,1,4.77.5,3.16.66,6.43-.35,9.28l-.48,1.37,1.11.43c2.82,1.09,5.63,2.29,8.35,3.65a81.17,81.17,0,0,1,8,4.4c2.58,1.62,5.08,3.37,7.55,5.16l3.69,2.67c1.16.92,2.34,1.75,3.49,2.69,2.32,1.8,4.63,3.68,6.93,5.57s4.55,3.89,6.82,5.88c4.55,4,9,8.09,13.74,12.06Z"/><path class="cls-4" d="M322.56,370.71a107.33,107.33,0,0,0-12.49-15.83c-2.33-2.42-4.71-4.8-7.26-7a54.67,54.67,0,0,0-8.17-6.11,50.59,50.59,0,0,0-4.53-2.48l-4.5-2.17c-3-1.47-5.92-3-8.74-4.8s-5.57-3.61-8.25-5.57-5.28-4.06-7.85-6.14l.82,1.78a83.19,83.19,0,0,0,.92-18.86A64,64,0,0,0,259,284.73c-.29-.75-.55-1.55-.86-2.25l-.91-2.11c-.6-1.41-1.24-2.8-1.87-4.2-1.24-2.8-2.55-5.58-3.87-8.35-2.69-5.52-5.44-11-8.6-16.34l-.56.23c1.32,6.07,3.05,12,4.85,17.84.92,2.93,1.85,5.85,2.86,8.74.49,1.45,1,2.91,1.49,4.34l.77,2.16.69,2.07c.48,1.35.81,2.78,1.23,4.17s.73,2.83,1,4.27c.67,2.86,1.09,5.8,1.49,8.75s.59,5.95.77,8.94.31,6,.33,9v1.33l.82.46,8.77,4.88c2.89,1.67,5.73,3.39,8.53,5.19s5.5,3.75,8.18,5.75l4,3c.66.5,1.27,1,1.9,1.51s1.25,1,1.87,1.53c4.91,4.19,9.93,8.39,14.91,12.7s10,8.65,15.35,12.75Z"/><path class="cls-4" d="M288.63,362.07A47.19,47.19,0,0,0,281,349.73a54.93,54.93,0,0,0-5-5.28c-.89-.83-1.82-1.63-2.78-2.39s-1.88-1.42-2.84-2.1c-3.84-2.7-8.06-5-11.82-7.89a74,74,0,0,1-10.34-9.69l.47,1.35c.18-.76.28-1.34.4-2l.31-1.92c.18-1.27.37-2.54.49-3.81.27-2.54.37-5.07.41-7.6s.1-5-.06-7.74c-.09-1.33-.27-2.63-.44-3.94s-.48-2.58-.77-3.85a68.53,68.53,0,0,0-5.44-14.42c-.54-1.15-1.18-2.26-1.8-3.37s-1.27-2.21-2-3.27a52.11,52.11,0,0,0-4.5-6.17l-.53.3c1.43,4.87,3,9.59,4.32,14.32s2.62,9.42,3.62,14.1l.71,3.5c.16,1.16.42,2.33.56,3.49.3,2.25.52,4.78.69,7.25s.34,4.94.57,7.41l.32,3.69c.09,1.2.16,2.51.15,3.57v1l.48.34a94.54,94.54,0,0,1,11,9c3.4,3.31,6.43,7.08,9.93,10.33.86.81,1.8,1.6,2.69,2.34l2.65,2.17q2.64,2.2,5.23,4.5c3.47,3.07,6.89,6.25,10.51,9.43Z"/><path class="cls-4" d="M264.2,357.22a24.44,24.44,0,0,0-3.57-10.09,33.71,33.71,0,0,0-3.1-4.35,22.35,22.35,0,0,0-1.83-2c-.32-.31-.66-.6-1-.9s-.64-.52-1-.79c-2.62-2-5.54-3.92-7.71-6.52a29.07,29.07,0,0,1-5-8.71l.22.65c.05-1.7.09-3.42,0-5.11s-.27-3.37-.43-5a79.73,79.73,0,0,0-1.54-10,84.49,84.49,0,0,0-2.9-9.64,59.46,59.46,0,0,0-4.24-9.28l-.59.15a76.17,76.17,0,0,0,.21,10.19c.27,3.34.68,6.64,1.22,9.9s1.38,6.46,2.17,9.68c.39,1.6.76,3.22,1.2,4.81s.93,3.19,1.44,4.78l.2.62,0,0a98.57,98.57,0,0,1,6.53,8.12c2,2.79,3.5,6.06,5.69,8.87.28.34.56.71.83,1s.52.62.8.92c.55.59,1.09,1.2,1.66,1.77l3.32,3.58,6.81,7.48Z"/><path class="cls-4" d="M249.68,240.94s3.76-22.06,9.81-31.42a57.49,57.49,0,0,1,15-15.17l2.36,14.53s.43-21,7.07-31.32c15.7-24.46,34.78-23.21,34.78-23.21l2.7,23.65s-.94-25.55,6.26-28.55,17.91-9.79,17.91-9.79l2.4,15.44,4.8-18.45s18-6.15,26.26-6.45l12.77-.47-10,25-20.92,2.6,17.57,5.75-11.16,19.6-25.55.94L366.6,191s-12.17,16.89-23,20-33.72,2.15-33.72,2.15l26.69,5.41s-8.59,14.93-24.81,21S249.68,240.94,249.68,240.94Z"/><path class="cls-5" d="M329.42,178.86l6.09-4.82,26.64-3-.09-.81-25.34,2.82,1.5-1.19,17.6-14c11.73-9.31,23.45-18.65,35-28.17-12.39,8.44-24.55,17.22-36.58,26.15-6,4.44-12,9-17.95,13.54-1.23.94-2.45,1.9-3.67,2.85l3.59-22.5-.81-.13L331.71,173q-6.57,5.11-13.09,10.28c-2.91,2.37-5.84,4.71-8.72,7.12L305.57,194l-4.28,3.67L301,198,303.39,169l-.81-.07-2.48,29.78c-1,.9-2,1.81-3,2.72l-4.16,3.78q-2.06,1.9-4.15,3.75c-1.38,1.25-2.77,2.5-4.19,3.72q-5.25,4.57-10.6,9l-2.7-17-.81.13,2.78,17.51q-11.54,9.56-23.55,18.6c8.21-5.08,16.17-10.58,23.9-16.38l.05.34,50.07-.64v-.82l-49.36.63V224q6-4.55,11.9-9.34c5.86-4.71,11.38-9.85,17.09-14.6l.83-.69,39.35-.36v-.82l-38.36.35c5.12-4.29,10.33-8.48,15.55-12.66Z"/><path class="cls-4" d="M201,312s-5.79-21.62-12.68-30.38A57.5,57.5,0,0,0,172,267.93l-1,14.69s-.37-22.84-9.95-30.54-36.79-19.88-36.79-19.88L123.77,256s-1.44-25.53-8.88-27.85-18.75-8.09-18.75-8.09l-1,15.6-6.5-17.93s-18.54-4.44-26.75-4l-12.76.72,12.33,24,21.07.64-17,7.36L78.55,265l25.53-1.44-24.15,9.59s13.69,15.69,24.78,17.81,33.78-1,33.78-1l-26.08,7.87s9.94,14.07,26.66,18.62S201,312,201,312Z"/><path class="cls-5" d="M115.83,257.62l-6.51-4.24-26.81-.48v-.82l25.5.46-1.61-1L87.6,239.23C75,231,62.52,222.84,50.1,214.43c13.13,7.26,26,14.87,38.86,22.65,6.42,3.86,12.77,7.85,19.13,11.82l3.92,2.5-5.67-22.07.79-.2L113,252q7,4.48,14,9c3.11,2.09,6.25,4.15,9.34,6.28l4.65,3.18,4.61,3.25.32.23-5.08-28.6.81-.14,5.23,29.43c1.1.8,2.19,1.61,3.28,2.42l4.5,3.38q2.22,1.7,4.48,3.35c1.49,1.12,3,2.23,4.51,3.32q5.65,4.07,11.4,8l1.11-17.21.82.05-1.14,17.69Q188.21,304.15,201,312c-8.65-4.3-17.08-9-25.32-14.1l0,.34-49.92,4-.07-.82,49.22-4v-.07q-6.43-4-12.71-8.19c-6.27-4.15-12.25-8.75-18.37-13l-.89-.61L103.7,279l-.07-.82L141.87,275c-5.49-3.79-11.08-7.48-16.66-11.16Z"/><path class="cls-4" d="M255.32,191.79s-4.87-15.87-4-24.09a42.64,42.64,0,0,1,4.86-15l6.41,8.84s-8.75-14.51-5.76-23.11,15.31-27,15.31-27l9.67,14.77s-9.14-16.61-5.37-21a116.07,116.07,0,0,0,8.6-12.46l6.74,9.43-3-13.83s9.91-10.09,15.25-13l8.31-4.57,1.69,19.94-13,8.7,13.56-2-.86,16.7-16.61,9.14,19-3.47s-2.43,15.25-8.57,20.95-21.63,12.67-21.63,12.67L305.42,148s-.71,12.76-9.43,22.19S255.32,191.79,255.32,191.79Z"/><path class="cls-5" d="M287.46,124.07l2.43-5.23L306.55,108l-.33-.51-15.85,10.32.6-1.29,7-15.12c4.67-10.08,9.32-20.17,13.82-30.34-5.4,9.73-10.52,19.59-15.52,29.52-2.52,5-4.94,10-7.38,15-.5,1-1,2.08-1.48,3.11l-5.12-16.11-.58.18L287,119.46q-2.65,5.58-5.24,11.18c-1.14,2.54-2.3,5.07-3.4,7.62l-1.67,3.83-1.62,3.86-.11.27-8.06-20-.56.23L274.66,147c-.38.93-.74,1.87-1.11,2.82l-1.5,3.89q-.73,1.94-1.5,3.87c-.5,1.29-1,2.58-1.53,3.86q-2,4.78-4,9.51l-7.47-10.38-.49.35,7.68,10.67q-4.46,10.18-9.4,20.18c3.75-6.11,7.18-12.4,10.37-18.82l.15.21,33-17.12-.28-.54L266,172.4l0,0q2.48-5,4.77-10.15c2.31-5.08,4.26-10.32,6.45-15.37l.32-.73,26-13.36-.28-.54-25.3,13c2-4.55,4-9.06,6.08-13.57Z"/><path class="cls-4" d="M228.11,317.41s-16.57-15-27.11-18.68a57.5,57.5,0,0,0-21.15-2.7L187,308.93s-12.68-19-24.9-20.29-41.69,3.2-41.69,3.2l12.48,20.28s-15-20.69-22.55-18.61-20.14,3.35-20.14,3.35l7.65,13.63L82.64,298.93s-18,6.3-24.65,11.13l-10.34,7.51L71,331.09l18.07-10.87L78.79,335.59l20.87,8.54,20.69-15-15.12,21.14s20,5.79,30.48,1.56,27.87-19.12,27.87-19.12l-17.67,20.74s16,6.45,32.49,1.23S228.11,317.41,228.11,317.41Z"/><path class="cls-5" d="M127,317.78l-7.77,0-22.8,14.11-.43-.7,21.69-13.42h-1.92l-22.46-.13c-15-.09-30-.2-45-.55,15-1,29.95-1.6,44.93-2,7.49-.23,15-.31,22.48-.42l4.65,0-16.71-15.49.56-.6,17.36,16.08q8.32,0,16.65,0c3.75.07,7.5.1,11.25.22l5.63.15,5.63.24.39,0L141.45,294l.6-.56,20.33,21.91c1.36.08,2.71.17,4.07.26l5.61.41q2.79.22,5.58.39c1.86.13,3.72.25,5.59.34q6.95.36,13.91.55l-8.38-15.07.71-.4,8.62,15.49q15,.41,30,.11c-9.6,1.07-19.25,1.65-28.92,1.86l.17.3L159.55,350l-.5-.65,39.24-30,0-.07q-7.56.14-15.12,0c-7.52-.09-15-.73-22.46-.95l-1.08,0-31.2,24-.5-.65,30.41-23.39c-6.67-.22-13.37-.29-20.05-.37Z"/><circle class="cls-4" cx="333.27" cy="114.67" r="2.95"/><circle class="cls-4" cx="22.62" cy="275.53" r="2.95"/><circle class="cls-4" cx="329.95" cy="56" r="4.8"/><circle class="cls-4" cx="385.66" cy="97.69" r="2.21"/><circle class="cls-4" cx="381.23" cy="39.4" r="2.21"/><circle class="cls-4" cx="411.48" cy="353.74" r="2.21"/><circle class="cls-4" cx="29.99" cy="361.86" r="2.21"/><circle class="cls-4" cx="397.83" cy="183.66" r="5.53"/><circle class="cls-4" cx="404.1" cy="237.16" r="4.43"/><circle class="cls-4" cx="381.23" cy="396.54" r="4.43"/><circle class="cls-4" cx="97.88" cy="80.72" r="4.8"/><circle class="cls-4" cx="43.84" cy="69.83" r="3.89"/><circle class="cls-4" cx="49.18" cy="146.4" r="5.17"/><circle class="cls-4" cx="80.17" cy="397.28" r="5.17"/><circle class="cls-4" cx="84.23" cy="36.82" r="1.84"/><circle class="cls-4" cx="30.73" cy="196.2" r="1.84"/><rect class="cls-6" x="77.61" y="109.68" width="208.44" height="135.88"/><path class="cls-7" d="M276,102.07H85.86A15.16,15.16,0,0,0,70.7,117.23V241.57a15.16,15.16,0,0,0,15.16,15.16H276a15.16,15.16,0,0,0,15.16-15.16V117.23A15.16,15.16,0,0,0,276,102.07Zm5.24,126.45a9.19,9.19,0,0,1-9.19,9.19H89.8a9.19,9.19,0,0,1-9.19-9.19V120.8a9.19,9.19,0,0,1,9.19-9.19H272.08a9.19,9.19,0,0,1,9.19,9.19Z"/><rect class="cls-8" x="91.96" y="124.43" width="154.22" height="8.95" rx="4.48" ry="4.48"/><rect class="cls-8" x="91.96" y="140.45" width="81.79" height="8.95" rx="4.48" ry="4.48"/><rect class="cls-8" x="91.96" y="156.47" width="81.79" height="8.95" rx="4.48" ry="4.48"/><rect class="cls-9" x="91.96" y="172.49" width="128" height="8.95" rx="4.48" ry="4.48"/><path class="cls-10" d="M312.29,248.95c0-.69.05-1.37.05-2.06,0-22.63-20-41-44.7-41s-44.7,18.34-44.7,41c0,.69,0,1.37.05,2.06v0a6.89,6.89,0,0,0-.05.92v62.81c0,5.29,4.68,9.57,10.43,9.57h68.55c5.75,0,10.43-4.29,10.43-9.57V249.92a6.88,6.88,0,0,0-.05-.92Zm-13,21.08h0v33.5c0,3.74-3.3,6.76-7.38,6.76H243.41c-4.06,0-7.36-3-7.36-6.76V270h0V244h0a25.37,25.37,0,0,1,.65-3.67c3.22-12.71,16.11-22.18,31-22.18s27.76,9.61,31,22.32a25.37,25.37,0,0,1,.65,3.67V270Z"/><rect class="cls-11" x="204.96" y="268.01" width="125.35" height="91.17" rx="8.14" ry="8.14"/><path class="cls-7" d="M280.86,315.95a13.21,13.21,0,0,1-7.05,11.7v9.71H261.47v-9.71a13.22,13.22,0,1,1,19.38-11.7Z"/><rect class="cls-7" x="213.05" y="237.71" width="29.02" height="19.01"/></g></g></g></svg>