<svg xmlns="http://www.w3.org/2000/svg" xmlns:xlink="http://www.w3.org/1999/xlink" viewBox="0 0 500 500"><defs><style>.cls-1{fill:none;}.cls-2{isolation:isolate;}.cls-3{clip-path:url(#clip-path);}.cls-4{fill:#f9e9c0;}.cls-5{fill:#e8d2a0;}.cls-6{fill:#fff8d9;}.cls-7{fill:#323758;}.cls-8{fill:#eefbfb;}.cls-9{fill:#ebcb82;}.cls-10{fill:#d8735a;}.cls-11{fill:#7cbda4;}.cls-12{fill:#243255;}.cls-13,.cls-25{fill:#fff;}.cls-13{opacity:0.8;}.cls-14{fill:#7cbea5;}.cls-15{fill:#415485;}.cls-16{fill:#eaca81;}.cls-17{fill:#f3dfb3;}.cls-18{fill:#aad7c7;}.cls-19{fill:#8e4c40;}.cls-20{fill:#a15845;}.cls-21{fill:#e3a390;}.cls-22{fill:#cc9547;}.cls-23{fill:#c0523e;}.cls-24{fill:#2f4855;}.cls-26{fill:#213238;}.cls-27{fill:#556eb2;}.cls-28{fill:#7e90ae;}.cls-29{fill:#f3f3f3;}.cls-30{fill:#deecf5;mix-blend-mode:multiply;}.cls-31{fill:#5e8e7c;}.cls-32{fill:#263a5a;}.cls-33{fill:#415486;}.cls-34{fill:#93afef;}</style><clipPath id="clip-path"><circle class="cls-1" cx="250" cy="250" r="220.19"/></clipPath></defs><title>StudentSVG</title><g class="cls-2"><g id="OBJECTS"><g class="cls-3"><rect class="cls-4" width="500" height="500"/><path class="cls-5" d="M228.53,276.1c-39.93-21.7-60.41-61-70.56-90.07a239.61,239.61,0,0,1-12.59-58.53l1-.05a238.59,238.59,0,0,0,12.54,58.28C169,214.66,189.37,253.68,229,275.22Z"/><path class="cls-5" d="M154.55,105.63a56.24,56.24,0,0,1,4.94,13.59c1,4.69,1.87,9.51,1.17,14.55a42.26,42.26,0,0,1-1.88,7.25c-.78,2.31-1.49,4.58-2.18,6.87s-1.32,4.59-1.95,6.91-1.23,4.64-2,7l-1,3-2.75-2.57c-2.74-2.56-5.31-5.33-8-7.94s-5.33-5.26-7.88-8-5.08-5.42-7.73-8q-2-2-4.06-3.69a14.2,14.2,0,0,0-4.64-2.75v-.6a11.25,11.25,0,0,1,6.05.82,34,34,0,0,1,5.39,2.65,64.8,64.8,0,0,1,9.37,7,76.24,76.24,0,0,1,8,8.39,104.5,104.5,0,0,1,7,9.19l-3.73.47a59.16,59.16,0,0,0,6.24-12.57,30.53,30.53,0,0,0,1.47-6.84,31.19,31.19,0,0,0-.11-6.81c-.68-4.44-1.09-9-1.53-13.69a128.12,128.12,0,0,1-.72-14.23Z"/><path class="cls-5" d="M115.13,138.15a108,108,0,0,1,10,7.74q4.77,4.08,9.25,8.38c3,2.88,5.59,6.15,8.46,9.17a34,34,0,0,0,4.62,4.12,20.14,20.14,0,0,0,2.58,1.6,7.55,7.55,0,0,0,2.62.86l-1,.59c1-2.56,2-5.13,3.1-7.69.55-1.28,1.12-2.56,1.74-3.82.3-.64.65-1.25,1-1.87l.53-.93.45-.81a47.32,47.32,0,0,0,3.07-7c.87-2.44,1.6-4.94,2.27-7.43a66.24,66.24,0,0,0,1.59-7.39,21.06,21.06,0,0,0,.23-3.47,33.58,33.58,0,0,0-.42-3.68c-.88-5.08-2.4-10.32-3.71-15.66l.54-.27a52.3,52.3,0,0,1,4.57,7,48.92,48.92,0,0,1,3.5,7.69,27.61,27.61,0,0,1,1.17,4.3,22.16,22.16,0,0,1,.22,4.66,37.87,37.87,0,0,1-1.48,8.57,55,55,0,0,1-3,8,43.66,43.66,0,0,1-4.29,7.52c-.22.29-.47.62-.68.88l-.63.74-1.23,1.53c-.83,1-1.63,2.09-2.42,3.18a53.36,53.36,0,0,0-4.28,6.82l-.36.7-.66-.11a11.52,11.52,0,0,1-3.26-1.23q-1.44-.8-2.79-1.65L141,165.69a70.82,70.82,0,0,1-10.31-7.51A99.92,99.92,0,0,1,122,149a72.42,72.42,0,0,1-7.35-10.4Z"/><path class="cls-5" d="M178,123.28a49.88,49.88,0,0,1,1,8,64.88,64.88,0,0,1-.11,8.05c-.1,1.34-.22,2.69-.42,4s-.41,2.68-.67,4c-.11.67-.27,1.33-.45,2s-.35,1.32-.54,2a37.87,37.87,0,0,1-1.48,3.87,28.21,28.21,0,0,1-2,3.69,20.48,20.48,0,0,1-1.17,1.75l-1.32,1.66c-.85,1.06-1.75,2-2.56,3s-1.59,2.08-2.33,3.16a52,52,0,0,0-6.62,14l-.51,1.74-2-.82c-2.31-.93-4.64-1.85-6.93-2.83l-6.83-3c-4.56-2-9.12-3.95-13.58-6.1L116,165.08c-2.23-1.06-4.47-2.08-6.73-3.06a44.39,44.39,0,0,0-7-2.44V159a25,25,0,0,1,7.77.13,65.24,65.24,0,0,1,7.53,1.59,113.28,113.28,0,0,1,14.36,5,141.06,141.06,0,0,1,13.53,6.73c2.2,1.22,4.41,2.42,6.57,3.72s4.26,2.69,6.36,4.13l-2.54.92c.68-1.27,1.37-2.38,2.08-3.54l2.14-3.4c1.42-2.25,2.83-4.49,4.2-6.77s2.7-4.6,3.93-6.93l.76-1.69a18.47,18.47,0,0,0,.63-1.75c.43-1.15.7-2.4,1.05-3.59,1.26-4.83,2.45-9.79,3.47-14.86s2-10.21,3.21-15.42Z"/><path class="cls-5" d="M203,142.75a139.9,139.9,0,0,1-9.92,13.51q-2.63,3.23-5.35,6.35t-5.59,6.1c-1.93,2-4,3.84-5.85,5.81s-3.78,4.1-5.51,6.27a119.61,119.61,0,0,0-9.38,13.8l-.55.92-1.36-.39c-2.69-.76-5.41-1.45-8.08-2.27s-5.31-1.69-8-2.58-5.28-1.77-7.9-2.69-5.27-2-7.68-2.73a100.47,100.47,0,0,0-15.68-3.46c-5.4-.8-10.91-1.28-16.52-1.73l-.07-.6a53.79,53.79,0,0,1,8.35-1.75c1.41-.21,2.83-.35,4.25-.45s2.85-.2,4.28-.2,2.87,0,4.31,0,2.88.15,4.32.35a54.11,54.11,0,0,1,8.61,1.65,80.65,80.65,0,0,1,8,3c2.59,1.07,5.15,2.18,7.72,3.28s5.15,2.19,7.67,3.4,5,2.48,7.54,3.71l-1.91.54a119.12,119.12,0,0,0,10.43-13c1.58-2.3,3-4.68,4.42-7.12a80.07,80.07,0,0,1,4.71-7.08,71,71,0,0,1,5.43-6.4q2.85-3.07,5.89-6a107.92,107.92,0,0,1,12.92-10.76Z"/><path class="cls-5" d="M239.09,245.65a21.49,21.49,0,0,1-2.56,8.47,18.49,18.49,0,0,1-5.51,6.79c-1.22.88-2.52,1.65-3.77,2.45s-2.41,1.64-3.58,2.51-2.36,1.75-3.66,2.6a13.93,13.93,0,0,1-4.47,2l1.85-1.16a16.24,16.24,0,0,1-1.55,3c-.59.93-1.21,1.83-1.9,2.7a18.52,18.52,0,0,1-4.9,4.48A19.09,19.09,0,0,1,202.8,282a14,14,0,0,1-6.64-.16l-.08-.59c1.84-1.19,3.49-2.2,5-3.35s2.92-2.26,4.28-3.45l4.12-3.57c.69-.61,1.37-1.25,2-1.92s1.31-1.39,1.89-2l1.28-1.24.56.08a11.51,11.51,0,0,0,3.69,0,10.13,10.13,0,0,0,3.71-1.46,11.19,11.19,0,0,0,3-2.78,28.92,28.92,0,0,0,2.12-3.59,34,34,0,0,1,4.75-6.59,45,45,0,0,1,6.07-6Z"/><path class="cls-5" d="M98,206.79a33.26,33.26,0,0,1,6.83-6.4,42.06,42.06,0,0,1,8.24-4.6,45.62,45.62,0,0,1,9.13-2.73,32.41,32.41,0,0,1,9.58-.28,63.33,63.33,0,0,1,9.17,1.94c3,.79,5.91,1.68,8.87,2.43,5.88,1.64,11.8,2.94,17.78,4.7l-2.68,1.46a20.76,20.76,0,0,1,.44-2.31,19.9,19.9,0,0,1,.64-2.14,28.1,28.1,0,0,1,1.75-4.07,38.26,38.26,0,0,1,5-7.26,45.58,45.58,0,0,1,6.4-6,80.23,80.23,0,0,1,6.94-4.77c4.7-2.92,9.42-5.54,13.92-8.44,2.27-1.43,4.42-3,6.56-4.62a69.9,69.9,0,0,0,6-5.44l.5.33a34.56,34.56,0,0,1-4.45,7.2,54.4,54.4,0,0,1-5.85,6.16,126.89,126.89,0,0,1-13.25,10.1c-4.47,3.11-8.93,5.94-12.53,9.45a38.58,38.58,0,0,0-6.78,9.13c-.3.56-.57,1.13-.83,1.7s-.51,1.2-.67,1.64l-.87,2.4-1.82-.94c-2.61-1.35-5.37-2.66-8.15-3.78a66.34,66.34,0,0,0-8.58-2.78,59.47,59.47,0,0,0-17.76-1.39c-.72.05-1.44.1-2.16.12s-1.41.14-2.12.21-1.4.11-2.11.24l-2.12.28a67.5,67.5,0,0,0-8.4,1.91,81.07,81.07,0,0,0-16.29,6.94Z"/><path class="cls-5" d="M107.19,219.33a33.69,33.69,0,0,1,6.59-5.56,45.77,45.77,0,0,1,7.65-4.05,41.45,41.45,0,0,1,17-3.43,36.78,36.78,0,0,1,4.36.39c1.44.2,2.82.45,4.22.68l8.35,1.45c2.78.46,5.56.92,8.35,1.49,1.39.31,2.8.58,4.19,1,.7.18,1.4.39,2.11.63.35.12.71.25,1.06.39a9.68,9.68,0,0,1,1.15.53l-2.32.34c1.5-2.26,3-4.47,4.61-6.62s3.34-4.19,5.07-6.25A94.11,94.11,0,0,1,191,188.69c1-.89,2.17-1.73,3.28-2.55s2.09-1.5,3.12-2.28c2.07-1.55,4.15-3.12,6.2-4.76l12.4-10,.46.39a81.39,81.39,0,0,1-9.65,13c-1.81,2-3.7,4-5.7,5.8-1,.94-2,1.82-3.08,2.71s-1.92,1.63-2.86,2.51c-3.78,3.43-7.59,7-11.32,10.69l-5.55,5.6-5.65,5.54-1.31,1.29-1-.94a6,6,0,0,0-.68-.48c-.27-.17-.54-.34-.83-.5-.57-.32-1.16-.64-1.78-.91a36.25,36.25,0,0,0-3.81-1.47,43.23,43.23,0,0,0-8.08-1.69,53.9,53.9,0,0,0-8.29-.26c-1.38.09-2.78.14-4.14.27s-2.68.29-4,.47c-2.65.38-5.27.77-7.89,1.24s-5.22,1.08-7.81,1.82a117.11,117.11,0,0,0-15.44,5.61Z"/><path class="cls-5" d="M107.28,228.49a58.61,58.61,0,0,1,8.3-3.72,83.76,83.76,0,0,1,8.68-2.66,86.54,86.54,0,0,1,8.93-1.76c1.5-.21,3-.42,4.53-.52.76-.06,1.52-.12,2.28-.15l2.29,0c6.14,0,12.12,1.11,18.07,2,3,.44,6,.85,8.92,1.35,1.49.25,3,.51,4.47.82a38.28,38.28,0,0,1,4.55,1.15l-2,.84a60.45,60.45,0,0,1,7.94-17.94,38.13,38.13,0,0,1,6.74-7.75c.69-.62,1.3-1.06,1.93-1.55l1.9-1.44c1.26-1,2.55-1.89,3.83-2.82q7.74-5.55,15.84-10.6c5.4-3.37,10.86-6.66,16.59-9.56l.35.49c-4.49,4.6-9.26,8.81-14.09,12.94s-9.77,8.09-14.84,11.89c-1.27.94-2.54,1.89-3.84,2.8l-1.94,1.37c-.64.45-1.34.91-1.84,1.34a33.85,33.85,0,0,0-6.14,6.16,87.33,87.33,0,0,0-5.18,7.52,75.71,75.71,0,0,0-4.51,8.12l-.72,1.54-1.24-.7a15.68,15.68,0,0,0-1.89-.86c-.67-.27-1.36-.51-2-.75a43.44,43.44,0,0,0-4.25-1.14,51.9,51.9,0,0,0-8.76-1.13c-5.9-.24-11.86.51-17.62,1.1l-8.7.84c-2.9.29-5.81.65-8.72,1-5.83.74-11.67,1.62-17.64,2.41Z"/><path class="cls-5" d="M113.14,244.4a70.45,70.45,0,0,1,8.37-4c2.85-1.18,5.78-2.16,8.73-3.08a76.17,76.17,0,0,1,18.33-3.42,43.44,43.44,0,0,1,4.76.08c1.54.11,3.07.27,4.6.45l9.15,1.09c3,.32,6.08.58,9.13.72s6.09.29,9.18.41l-1.46,1.2a22.68,22.68,0,0,1,3.62-10.31,26,26,0,0,1,1.47-2.23c.5-.74,1-1.43,1.58-2.13s1.11-1.37,1.69-2,1.14-1.33,1.76-1.95c2.39-2.54,4.9-4.93,7.49-7.2s5.24-4.47,8-6.49a158.29,158.29,0,0,1,17.31-11,142.63,142.63,0,0,1,18.52-8.74l.29.52c-5.34,4.26-10.78,8.27-16.18,12.3L213.39,210.7c-5.31,4-10.69,8-15.52,12.41-.62.55-1.2,1.12-1.79,1.68s-1.18,1.13-1.73,1.72c-1.17,1.13-2.25,2.34-3.3,3.55-2.07,2.42-3.89,5.11-4.49,8l-.29,1.41-1.17-.2c-3-.52-6-.94-9-1.18a81.7,81.7,0,0,0-9.1-.36c-3,0-6.08.25-9.11.5l-4.53.37c-1.46.18-2.9.28-4.37.49-2.91.33-5.85.75-8.8,1.17s-5.9,1-8.86,1.49c-5.94,1-11.87,2.24-18,3.18Z"/><path class="cls-5" d="M116.5,259.46a107.68,107.68,0,0,1,18.84-7c3.24-.86,6.51-1.65,9.83-2.24a55,55,0,0,1,10.13-1,50.93,50.93,0,0,1,5.15.22l5,.46c3.31.29,6.63.45,9.94.41s6.63-.21,9.93-.5,6.61-.74,9.88-1.18l-1.62,1.09a82.2,82.2,0,0,1,9-16.46,63.52,63.52,0,0,1,12.72-14.1c.63-.49,1.27-1,1.9-1.47l1.87-1.32c1.24-.89,2.51-1.74,3.77-2.6,2.51-1.74,5.06-3.42,7.62-5.09,5.15-3.3,10.34-6.55,15.79-9.44l.36.48c-4.27,4.47-8.79,8.58-13.36,12.64-2.3,2-4.6,4-7,5.95-1.17,1-2.33,2-3.52,2.92l-1.77,1.44-1.66,1.41c-1.11.9-2.13,1.94-3.2,2.9s-2.08,2-3.06,3.11c-2.05,2.08-3.92,4.36-5.8,6.65s-3.57,4.74-5.27,7.19-3.39,5-4.92,7.45l-.69,1.12-.93,0-10-.35c-3.33-.06-6.65-.06-10,0s-6.64.36-10,.68l-5,.51c-.83.09-1.6.21-2.4.31s-1.59.21-2.39.34c-6.36,1-12.82,2-19.3,3.12s-13,2.21-19.7,2.94Z"/><path class="cls-5" d="M149.95,269.52A47.25,47.25,0,0,1,162.88,263a55.2,55.2,0,0,1,7-1.9c1.19-.25,2.4-.45,3.61-.6s2.34-.24,3.52-.32c4.68-.32,9.48-.13,14.17-.63a74.43,74.43,0,0,0,13.84-2.92l-1.1.91c.24-.73.45-1.28.69-1.9l.72-1.78c.5-1.17,1-2.35,1.55-3.48,1.08-2.29,2.3-4.49,3.58-6.66s2.51-4.3,4-6.53c.76-1.08,1.59-2.09,2.41-3.12s1.74-1.94,2.64-2.87a68.34,68.34,0,0,1,12.1-9.44c1.06-.7,2.17-1.31,3.28-1.94s2.22-1.22,3.37-1.76a52.25,52.25,0,0,1,7-2.92l.29.52c-3.73,3.39-7.48,6.61-11.09,9.93s-7.11,6.65-10.38,10.1l-2.42,2.6c-.74.9-1.56,1.76-2.28,2.67-1.42,1.76-2.91,3.78-4.33,5.79s-2.85,4-4.31,6l-2.18,3c-.69,1-1.43,2.05-2,3l-.52.86-.58,0a95.09,95.09,0,0,0-14.05,2c-4.62,1.06-9.15,2.71-13.82,3.67-1.16.24-2.37.43-3.5.61l-3.39.48q-3.39.51-6.8,1.14c-4.55.82-9.12,1.77-13.85,2.61Z"/><path class="cls-5" d="M173.33,277.93a24.36,24.36,0,0,1,8.26-6.72,33.77,33.77,0,0,1,4.9-2.1,22.45,22.45,0,0,1,2.57-.72c.43-.1.87-.18,1.31-.25s.82-.11,1.23-.17c3.27-.36,6.76-.48,10-1.57a29.09,29.09,0,0,0,8.8-4.81l-.52.44c.84-1.47,1.69-2.94,2.63-4.34s2-2.72,3-4.06a79.13,79.13,0,0,1,6.46-7.65,84.14,84.14,0,0,1,7.45-6.69,59.4,59.4,0,0,1,8.42-5.69l.42.42a75.38,75.38,0,0,1-5.44,8.53c-2,2.7-4,5.28-6.16,7.77s-4.52,4.77-6.85,7.09c-1.16,1.16-2.31,2.34-3.51,3.47s-2.44,2.22-3.7,3.32l-.49.43h0a98.91,98.91,0,0,0-9.77,3.54c-3.15,1.34-6.12,3.34-9.45,4.61-.41.14-.84.31-1.24.44s-.77.26-1.16.37c-.78.22-1.55.46-2.34.65l-4.69,1.34-9.68,2.86Z"/><path class="cls-5" d="M272.77,425.08c51.42-5.73,90-38.46,113.4-64.91a276.37,276.37,0,0,0,38.73-56.57l-1-.49a275.21,275.21,0,0,1-38.57,56.32c-23.21,26.29-61.6,58.82-112.65,64.51Z"/><path class="cls-5" d="M424.79,276.47a64.76,64.76,0,0,0-11.11,12.26c-3.15,4.52-6.11,9.27-7.56,14.91a48.71,48.71,0,0,0-1.18,8.5c-.19,2.78-.43,5.5-.7,8.22s-.61,5.44-1,8.17-.72,5.45-.95,8.28l-.29,3.64,4-1.53c4-1.53,7.9-3.35,11.87-5s7.89-3.27,11.76-5,7.71-3.55,11.6-5.11c1.94-.82,3.9-1.54,5.88-2.15a16.11,16.11,0,0,1,6.08-.9l.26-.64c-2-1.36-4.45-1.64-6.72-1.75a38.47,38.47,0,0,0-6.81.48A73.7,73.7,0,0,0,427,322.28a87.05,87.05,0,0,0-12,5.45,119.59,119.59,0,0,0-11.36,6.71l3.72,2.11a68,68,0,0,1-1.08-16,35.21,35.21,0,0,1,1.44-7.88,36,36,0,0,1,3.08-7.17c2.65-4.41,5.08-9.11,7.57-13.84a147.89,147.89,0,0,0,7-14.76Z"/><path class="cls-5" d="M452.05,328a122.89,122.89,0,0,0-13.91,3.86q-6.78,2.26-13.37,4.88c-4.39,1.76-8.55,4.1-12.88,6.06a38.69,38.69,0,0,1-6.65,2.36,22.86,22.86,0,0,1-3.41.58,8.53,8.53,0,0,1-3.13-.23l.81,1.06c0-3.17.13-6.3.09-9.49,0-1.59-.06-3.19-.16-4.8,0-.81-.14-1.61-.23-2.42l-.16-1.21-.12-1.06a54.4,54.4,0,0,1-.18-8.72c.14-3,.47-5.93.85-8.85a76.37,76.37,0,0,1,1.55-8.52,24.32,24.32,0,0,1,1.27-3.78,38.76,38.76,0,0,1,2-3.72c3.14-5,7-9.89,10.72-15l-.45-.52a60,60,0,0,0-7.83,5.41,56.24,56.24,0,0,0-7,6.63,31.8,31.8,0,0,0-3.1,4,25.59,25.59,0,0,0-2.26,4.84,43.7,43.7,0,0,0-2.18,9.72,63.29,63.29,0,0,0-.31,9.74,50.12,50.12,0,0,0,1.23,9.82c.11.41.22.86.34,1.23l.33,1.06.63,2.16c.43,1.45.81,2.92,1.16,4.41a61.19,61.19,0,0,1,1.52,9.07l.07.89.74.17a13,13,0,0,0,4,.11c1.24-.15,2.45-.33,3.65-.54l7.18-1.3a80.51,80.51,0,0,0,14.11-3.5,114.06,114.06,0,0,0,13.13-6,83,83,0,0,0,12.25-7.85Z"/><path class="cls-5" d="M392.45,285a57.56,57.56,0,0,0-4.52,8.06,74.9,74.9,0,0,0-3.4,8.58c-.48,1.47-.94,2.94-1.31,4.44s-.74,3-1,4.54c-.17.76-.3,1.53-.4,2.31s-.2,1.55-.29,2.33a43.58,43.58,0,0,0-.13,4.74,32.39,32.39,0,0,0,.51,4.77,23.51,23.51,0,0,0,.47,2.37l.67,2.34c.43,1.49,1,2.85,1.37,4.31s.76,2.89,1.08,4.35a59.78,59.78,0,0,1,.84,17.74l-.22,2.06h2.49c2.83,0,5.69,0,8.52,0l8.5-.25c5.66-.15,11.31-.24,16.93-.59l16.85-1.06c2.8-.16,5.6-.28,8.4-.33a50.19,50.19,0,0,1,8.38.43l.26-.64a28.14,28.14,0,0,0-8.22-3.22,73.64,73.64,0,0,0-8.61-1.57,128,128,0,0,0-17.28-.9,159.83,159.83,0,0,0-17.16,1.28c-2.85.34-5.69.66-8.52,1.1s-5.65,1-8.48,1.62l2.27,2.07c-.16-1.64-.4-3.11-.65-4.65l-.77-4.52c-.51-3-1-6-1.47-9s-.83-6-1.11-9l-.07-2.12a21.25,21.25,0,0,1,.1-2.13c0-1.41.31-2.84.46-4.25.78-5.66,1.69-11.43,2.83-17.24s2.37-11.66,3.34-17.73Z"/><path class="cls-5" d="M357.66,294.84a160.17,160.17,0,0,0,4.55,18.6q1.35,4.55,2.85,9t3.22,8.88c1.17,2.92,2.5,5.79,3.62,8.68s2.19,6,3.06,9a137.07,137.07,0,0,1,3.85,18.68L379,369l1.6.18c3.16.36,6.32.81,9.48,1.09s6.32.5,9.48.71,6.32.41,9.48.56,6.39.21,9.27.43a113.41,113.41,0,0,1,18,3.12c6,1.49,12,3.36,18.12,5.31l.34-.6a60.73,60.73,0,0,0-8-5.46c-1.39-.83-2.82-1.59-4.27-2.32s-2.91-1.44-4.42-2.06-3-1.23-4.55-1.82-3.1-1.08-4.69-1.5a61.08,61.08,0,0,0-9.77-2,91.18,91.18,0,0,0-9.74-.31c-3.18,0-6.37.08-9.55.14s-6.36.09-9.55.28-6.37.45-9.54.67l1.77,1.39a136.27,136.27,0,0,1-5.3-18.27c-.66-3.12-1.08-6.23-1.54-9.45a91.78,91.78,0,0,0-1.86-9.53,81.14,81.14,0,0,0-2.92-9.12q-1.66-4.48-3.59-8.85a122.87,122.87,0,0,0-8.89-17Z"/><path class="cls-5" d="M274.94,388.27a24.76,24.76,0,0,0-1,10.08,21.15,21.15,0,0,0,2.83,9.57c.89,1.46,1.93,2.84,2.89,4.22s1.82,2.78,2.67,4.2,1.72,2.87,2.72,4.34a15.76,15.76,0,0,0,3.85,4l-1.44-2a18.67,18.67,0,0,0,.31,3.87c.22,1.24.48,2.47.82,3.68a21.11,21.11,0,0,0,3.2,6.86,21.6,21.6,0,0,0,5.45,5.35,15.73,15.73,0,0,0,7.05,2.7l.34-.6c-1.42-2.06-2.71-3.84-3.8-5.71s-2.08-3.66-3-5.51l-2.77-5.56c-.46-.95-.9-1.91-1.28-2.9s-.77-2-1.14-2.89l-.81-1.87-.63-.15a13,13,0,0,1-3.88-1.61,11.46,11.46,0,0,1-3.26-3.15,12.76,12.76,0,0,1-1.92-4.23,33.19,33.19,0,0,1-.67-4.72,38.94,38.94,0,0,0-2.13-9,51.39,51.39,0,0,0-3.76-9Z"/><path class="cls-5" d="M440.2,408.09a37.92,37.92,0,0,0-4.39-9.73,47.7,47.7,0,0,0-6.66-8.43,51.54,51.54,0,0,0-8.41-6.84,36.55,36.55,0,0,0-9.95-4.44,71.48,71.48,0,0,0-10.49-1.91c-3.49-.45-6.94-.78-10.38-1.26-6.9-.8-13.68-2-20.73-2.71l2.18,2.71a23.94,23.94,0,0,0,.54-2.64,22.93,22.93,0,0,0,.26-2.54,32.31,32.31,0,0,0-.06-5.07,43.83,43.83,0,0,0-2.12-9.86,52,52,0,0,0-4.12-9.09,91.16,91.16,0,0,0-5.22-8.05c-3.67-5.13-7.49-9.94-11-15-1.76-2.5-3.34-5.08-4.88-7.73a79.66,79.66,0,0,1-4-8.37l-.67.14a39.64,39.64,0,0,0,1.53,9.55,62.13,62.13,0,0,0,3.47,9.06,144.33,144.33,0,0,0,9.53,16.43c3.35,5.23,6.79,10.15,9.05,15.43a44.19,44.19,0,0,1,3.15,12.6c.07.72.1,1.44.13,2.16s0,1.49,0,2l-.14,2.91,2.32-.21c3.34-.3,6.8-.5,10.22-.48a75,75,0,0,1,10.23.76,67.07,67.07,0,0,1,19.27,6.21q1.11.55,2.22,1.07c.74.35,1.42.76,2.14,1.13s1.43.72,2.12,1.16l2.11,1.21a76.19,76.19,0,0,1,8,5.66,91.74,91.74,0,0,1,14.1,14.4Z"/><path class="cls-5" d="M425,417.39a38.37,38.37,0,0,0-4.51-8.73,51.88,51.88,0,0,0-6.28-7.6,46.79,46.79,0,0,0-16.4-11,41.47,41.47,0,0,0-4.75-1.48c-1.6-.41-3.16-.74-4.73-1.11L379,385.4c-3.12-.71-6.24-1.43-9.42-2-1.6-.27-3.19-.6-4.83-.77-.82-.11-1.65-.19-2.49-.24-.42,0-.85,0-1.29,0a11,11,0,0,0-1.44.07l2.28,1.37c-.59-3-1.2-6-2-9s-1.69-5.89-2.61-8.81a107.41,107.41,0,0,0-6.87-17.22c-.7-1.39-1.53-2.77-2.34-4.12s-1.54-2.49-2.29-3.77c-1.5-2.54-3-5.1-4.44-7.72l-8.69-15.91-.65.21a93.17,93.17,0,0,0,4.49,17.92c1,2.91,2.16,5.79,3.47,8.61.63,1.42,1.34,2.81,2.05,4.2s1.3,2.56,1.91,3.89c2.47,5.27,4.92,10.71,7.25,16.22l3.4,8.33,3.52,8.31.82,1.93,1.47-.56a6.79,6.79,0,0,1,.92-.22c.36-.06.72-.12,1.09-.17.74-.09,1.5-.17,2.27-.19a41,41,0,0,1,4.64.09,48.79,48.79,0,0,1,9.23,1.7,60.78,60.78,0,0,1,8.83,3.31c1.41.7,2.86,1.36,4.23,2.07s2.69,1.47,4,2.23c2.62,1.55,5.2,3.09,7.75,4.73s5,3.4,7.41,5.3a132.4,132.4,0,0,1,13.79,12.62Z"/><path class="cls-5" d="M421,427.06a66.34,66.34,0,0,0-7.1-7.52,94.6,94.6,0,0,0-8-6.57,97.66,97.66,0,0,0-8.62-5.72c-1.49-.87-3-1.74-4.53-2.51-.77-.39-1.54-.78-2.33-1.14l-2.39-1c-6.45-2.64-13.22-4.06-19.85-5.73-3.32-.82-6.62-1.67-10-2.43-1.67-.38-3.35-.74-5.05-1.06a43.22,43.22,0,0,0-5.29-.75l1.7,1.74c.86-7.44,1.05-14.93-.53-22.44a43.57,43.57,0,0,0-3.71-11.12c-.46-1-.91-1.69-1.36-2.48L342.59,356c-.91-1.56-1.85-3.11-2.8-4.65q-5.71-9.22-12-18.08c-4.2-5.91-8.51-11.74-13.27-17.29l-.58.36c2.72,6.81,5.89,13.34,9.17,19.8s6.75,12.8,10.42,19c.93,1.55,1.85,3.1,2.81,4.63l1.44,2.29c.48.76,1,1.55,1.36,2.21a38.63,38.63,0,0,1,3.77,9.18,100.07,100.07,0,0,1,2.17,10.21,86.93,86.93,0,0,1,1.2,10.55l.09,1.95,1.61-.21a17.79,17.79,0,0,1,2.36-.09c.82,0,1.65,0,2.48.09a49.1,49.1,0,0,1,5,.62,58.53,58.53,0,0,1,9.7,2.59c6.31,2.3,12.25,5.66,18,8.78l8.77,4.65c2.93,1.56,5.82,3.19,8.73,4.84,5.81,3.3,11.56,6.76,17.49,10.18Z"/><path class="cls-5" d="M407.86,441.38a79.78,79.78,0,0,0-7.07-7.82c-2.48-2.48-5.13-4.78-7.83-7A86,86,0,0,0,375.19,415a49,49,0,0,0-5-2c-1.67-.55-3.35-1-5-1.51L355,408.68c-3.34-1-6.65-2-9.92-3.18s-6.53-2.33-9.83-3.53l1,1.9c1.46-4.16,1.26-8.47.69-12.49a29.75,29.75,0,0,0-.57-3c-.2-1-.47-2-.73-2.94s-.57-1.93-.9-2.87-.62-1.91-1-2.82c-1.41-3.73-3-7.34-4.74-10.87s-3.57-7-5.59-10.34a179.69,179.69,0,0,0-13.41-19.12,161.55,161.55,0,0,0-15.66-17.26l-.54.43c3.76,6.82,7.73,13.42,11.65,20l11.66,19.73c3.83,6.55,7.77,13.05,10.9,19.86.41.85.77,1.7,1.15,2.55s.75,1.71,1.07,2.57c.74,1.71,1.35,3.45,1.92,5.18,1.11,3.46,1.86,7.09,1.22,10.46l-.31,1.61,1.32.29c3.35.73,6.72,1.59,10,2.64a92.1,92.1,0,0,1,9.72,3.55c3.18,1.36,6.28,2.89,9.36,4.47l4.6,2.35c1.46.83,2.93,1.55,4.38,2.41,2.92,1.61,5.83,3.32,8.73,5s5.78,3.57,8.66,5.41c5.79,3.65,11.5,7.51,17.49,11.14Z"/><path class="cls-5" d="M397.76,455.89A121.78,121.78,0,0,0,381,440.31c-3-2.31-6.12-4.56-9.36-6.62a62,62,0,0,0-10.22-5.43,57.4,57.4,0,0,0-5.51-2l-5.42-1.65c-3.61-1.13-7.17-2.39-10.63-3.86s-6.87-3.09-10.22-4.82-6.63-3.64-9.86-5.52l1.23,1.85a94.39,94.39,0,0,0-2.24-21.31c-1.54-7-3.59-14-7.23-20.43-.45-.79-.89-1.64-1.36-2.37l-1.39-2.21c-.92-1.48-1.88-2.93-2.82-4.39-1.88-2.93-3.83-5.81-5.79-8.69-4-5.73-8-11.41-12.48-16.83l-.59.35c2.54,6.58,5.5,12.89,8.53,19.17,1.54,3.12,3.09,6.24,4.72,9.31.81,1.54,1.59,3.09,2.43,4.61l1.24,2.29,1.13,2.21c.77,1.43,1.39,3,2.1,4.46s1.31,3,1.86,4.62c1.25,3.09,2.22,6.32,3.19,9.55s1.69,6.56,2.41,9.9,1.4,6.72,1.93,10l.24,1.48,1,.37,10.68,4c3.52,1.37,7,2.81,10.46,4.34s6.82,3.25,10.17,5l5,2.69c.83.45,1.6.91,2.39,1.36s1.58.91,2.36,1.39c6.23,3.85,12.59,7.68,18.93,11.65s12.72,8,19.42,11.63Z"/><path class="cls-5" d="M358.22,452.08a53.54,53.54,0,0,0-10.75-12.51,62.33,62.33,0,0,0-6.57-5.05c-1.14-.78-2.32-1.51-3.53-2.2s-2.35-1.27-3.55-1.86c-4.78-2.36-9.9-4.23-14.62-6.79a84,84,0,0,1-13.27-9.07l.76,1.43c.07-.88.08-1.55.1-2.31l0-2.2c0-1.46,0-2.92-.11-4.36-.14-2.89-.46-5.75-.86-8.6s-.76-5.64-1.41-8.67c-.33-1.47-.76-2.9-1.17-4.35s-1-2.8-1.53-4.18a77.75,77.75,0,0,0-8.61-15.23c-.81-1.2-1.71-2.33-2.6-3.47s-1.8-2.25-2.77-3.32a59.12,59.12,0,0,0-6.12-6.14l-.54.43c2.45,5.21,5,10.24,7.33,15.31s4.57,10.11,6.51,15.18l1.41,3.8c.38,1.28.87,2.54,1.24,3.81.73,2.47,1.41,5.26,2,8s1.24,5.48,1.92,8.21l1,4.08c.31,1.33.61,2.79.79,4l.17,1.14.59.3A107.26,107.26,0,0,1,318,425.67c4.39,3.12,8.43,6.82,12.93,9.86,1.11.76,2.3,1.48,3.42,2.16l3.35,2q3.34,2,6.65,4.14c4.43,2.84,8.81,5.81,13.42,8.75Z"/><path class="cls-5" d="M330,450.88a27.73,27.73,0,0,0-5.75-10.69,38.24,38.24,0,0,0-4.23-4.34,25.36,25.36,0,0,0-2.39-1.87c-.41-.29-.84-.56-1.27-.83s-.81-.47-1.22-.72c-3.29-1.79-6.9-3.44-9.78-6a33,33,0,0,1-7.15-8.9l.36.69c-.24-1.92-.5-3.85-.87-5.73s-.88-3.73-1.35-5.59a90.46,90.46,0,0,0-3.45-10.9,95.87,95.87,0,0,0-4.92-10.31,67.46,67.46,0,0,0-6.37-9.67l-.63.27a86.42,86.42,0,0,0,2,11.39c.88,3.7,1.92,7.32,3.09,10.89s2.67,7,4.11,10.47c.72,1.73,1.4,3.48,2.18,5.19s1.6,3.41,2.44,5.11l.33.66,0,0a111.83,111.83,0,0,1,8.73,8c2.72,2.78,5,6.18,7.92,9,.37.33.75.7,1.11,1s.69.61,1.06.89c.72.57,1.43,1.16,2.17,1.7l4.34,3.44,8.93,7.21Z"/><path class="cls-5" d="M293.52,323s.38-25.39,5.54-36.93a65.23,65.23,0,0,1,14.16-19.61l5.17,15.88s-3.15-23.61,2.49-36.35c13.36-30.15,35-32.05,35-32.05L363,240s-5.49-28.48,2.06-33.1,18.38-14.09,18.38-14.09l5.37,16.9L391,188.2s19.17-10,28.32-11.79l14.24-2.74-6.91,29.81-23,6.54,20.7,3.4-9.11,23.91-28.48,5.49L416,246.69s-10.71,21.05-22.33,26.46-37.44,8.27-37.44,8.27l30.87,1.44s-7,18.23-24.17,27.86S293.52,323,293.52,323Z"/><path class="cls-4" d="M372.17,239.58l6-6.46,29.36-7.95-.24-.9-27.93,7.56,1.48-1.6,17.31-18.71c11.54-12.47,23.05-25,34.39-37.66C420.09,185.49,408,197.43,396,209.54c-6,6-11.87,12.17-17.77,18.3-1.21,1.27-2.41,2.56-3.62,3.84l.12-25.85h-.93l-.13,26.84q-6.48,6.87-12.89,13.8c-2.85,3.16-5.73,6.29-8.54,9.49l-4.24,4.78-4.17,4.85-.29.34-2.33-32.86-.93.07L342.74,267c-1,1.18-2,2.38-2.94,3.58l-4,5q-2,2.48-4,4.93c-1.34,1.64-2.68,3.28-4,4.9q-5.09,6-10.33,12l-6-18.62-.88.28,6.15,19.15Q305.42,310.8,293.52,323c8.32-7.13,16.29-14.67,24-22.52l.12.37,56-9.41-.15-.92-55.24,9.27,0-.08q6-6.15,11.72-12.53c5.75-6.3,11.05-13,16.62-19.33l.81-.92,44.06-7.24-.15-.92-42.94,7.05c5-5.7,10.12-11.3,15.24-16.89Z"/><path class="cls-5" d="M221.75,389.6s1.86-25.33-2.27-37.29a65.24,65.24,0,0,0-12.38-20.78l-6.55,15.37s8.12-24.62.72-36.43-32-35-32-35l-9.4,25.33s8-27.89.86-33.16S143.66,252,143.66,252l-6.84,16.36-.28-21.63S118.33,235,109.36,232.45l-13.95-4,4.26,30.31L122,267.32l-20.92,1.56,7,24.62,27.89,8-29.46,1.27s8.82,21.92,19.92,28.33S163,342.62,163,342.62l-30.88-1.29s5.4,18.79,21.62,29.89S221.75,389.6,221.75,389.6Z"/><path class="cls-4" d="M150.75,299.53l-5.4-7L116.8,282.06l.32-.87,27.16,10-1.33-1.72L127.35,269.3c-10.4-13.45-20.77-26.91-30.94-40.56,11.36,12.67,22.37,25.64,33.2,38.75,5.44,6.53,10.76,13.18,16.09,19.8,1.1,1.37,2.18,2.76,3.27,4.14l2.15-25.77.92.08-2.24,26.76q5.85,7.41,11.63,14.89c2.56,3.4,5.15,6.77,7.67,10.21l3.8,5.14,3.72,5.2.25.36,5.21-32.54.92.15-5.36,33.48q1.32,1.9,2.61,3.82l3.56,5.3q1.75,2.65,3.55,5.26c1.19,1.76,2.38,3.51,3.6,5.24q4.54,6.46,9.23,12.82l7.6-18,.86.36-7.82,18.54Q211,376.38,221.75,389.6c-7.67-7.83-14.94-16.05-21.88-24.55l-.15.36-55-14.31.23-.9,54.22,14.11,0-.08q-5.41-6.66-10.57-13.52c-5.18-6.78-9.86-13.95-14.86-20.73l-.72-1-43.26-11.09.23-.9,42.16,10.81c-4.47-6.11-9.08-12.15-13.69-18.18Z"/><path class="cls-5" d="M291.32,266.94s-8.21-17-8.64-26.32a48.38,48.38,0,0,1,2.84-17.71l8.72,8.8S281.91,217,283.77,206.79s12.48-32.9,12.48-32.9l13.41,14.89s-13.13-17-9.67-22.62,7.48-15.47,7.48-15.47l9.19,9.41-5.73-15s9.36-13,14.84-17.25l8.52-6.57,5.36,22.06-13.06,12,14.85-4.65,1.94,18.88-17,13.13L347,175.54s-.08,17.52-6,25-22.05,18-22.05,18l20.93-9.34s1.42,14.43-6.72,26.52S291.32,266.94,291.32,266.94Z"/><path class="cls-4" d="M315.61,185.43l1.81-6.28,16.8-15.06-.46-.51-16,14.32.45-1.55,5.23-18.17c3.49-12.11,6.95-24.24,10.23-36.42-4.36,11.84-8.4,23.79-12.27,35.8-2,6-3.81,12-5.68,18.05-.38,1.25-.75,2.5-1.12,3.75l-8.54-17.17-.62.31,8.86,17.83q-2,6.71-3.94,13.44c-.83,3-1.7,6.08-2.49,9.14l-1.21,4.58-1.14,4.6-.08.32-12.5-21-.59.35,12.86,21.61c-.26,1.11-.51,2.23-.76,3.35l-1,4.63q-.48,2.3-1,4.6c-.34,1.53-.68,3.07-1,4.59q-1.36,5.7-2.86,11.36l-10.17-10.35-.49.48,10.46,10.64q-3.23,12.19-7,24.25c3.14-7.5,5.9-15.15,8.37-22.91l.2.21,34-24.92-.41-.56L300,243.33l0,0q1.91-6.07,3.59-12.21c1.71-6.09,3-12.31,4.57-18.35l.23-.88,26.78-19.49-.41-.56-26.1,19c1.41-5.44,2.94-10.86,4.46-16.28Z"/><path class="cls-5" d="M245,423.9s-12.15-22.3-22.09-30.12A65.24,65.24,0,0,0,201.24,383L204,399.47s-6.5-25.09-19.12-31-45.87-12.11-45.87-12.11l5.81,26.39s-8.39-27.77-17.22-28.35-22.83-3.92-22.83-3.92l3.11,17.46L96,349.87s-21.63,0-30.56,2.74l-13.89,4.2,20,23.18,23.41-4.91L78.19,387.72l19.19,16.93,27.77-8.39-24.08,17s19.28,13.66,32.08,13,37-10.1,37-10.1l-26.66,15.63s14.71,12.87,34.36,13.43S245,423.9,245,423.9Z"/><path class="cls-4" d="M136.53,386.61l-8.31-2.94L98.53,390.3l-.2-.91,28.24-6.3-2.05-.73-24-8.51c-16-5.68-32-11.39-48-17.35,16.41,4.5,32.69,9.45,48.89,14.61,8.11,2.55,16.18,5.26,24.25,7.93l5,1.71-12.14-22.83.82-.44,12.6,23.71q8.93,3.07,17.83,6.22c4,1.48,8,2.91,12,4.43l6,2.26,5.95,2.36.41.17-13.23-30.18.85-.37,13.62,31.06c1.43.59,2.85,1.19,4.27,1.8l5.86,2.53q2.91,1.28,5.84,2.5c1.95.83,3.9,1.66,5.86,2.45q7.31,3,14.7,5.78l-3.37-19.27.91-.16,3.46,19.82q15.91,6,32.12,11.3c-10.69-2.44-21.25-5.41-31.69-8.79l.07.38-54,17.74-.29-.88,53.23-17.49v-.08q-8.15-2.67-16.2-5.64c-8-2.9-15.84-6.39-23.71-9.39l-1.14-.44L128.86,413.4l-.29-.88,41.31-13.73c-7.07-2.72-14.21-5.3-21.35-7.87Z"/><circle class="cls-6" cx="383.01" cy="134.98" r="3.35"/><circle class="cls-6" cx="30.54" cy="317.5" r="3.35"/><circle class="cls-6" cx="379.24" cy="68.43" r="5.44"/><circle class="cls-6" cx="442.45" cy="115.73" r="2.51"/><circle class="cls-6" cx="437.43" cy="49.59" r="2.51"/><circle class="cls-6" cx="471.75" cy="406.24" r="2.51"/><circle class="cls-6" cx="38.92" cy="415.45" r="2.51"/><circle class="cls-6" cx="456.26" cy="213.26" r="6.28"/><circle class="cls-6" cx="463.38" cy="273.96" r="5.02"/><circle class="cls-6" cx="437.43" cy="454.8" r="5.02"/><circle class="cls-6" cx="115.94" cy="96.47" r="5.44"/><circle class="cls-6" cx="54.63" cy="84.11" r="4.41"/><circle class="cls-6" cx="60.68" cy="170.98" r="5.86"/><circle class="cls-6" cx="95.85" cy="455.63" r="5.86"/><circle class="cls-6" cx="100.45" cy="46.66" r="2.09"/><circle class="cls-6" cx="39.75" cy="227.5" r="2.09"/><path class="cls-7" d="M109.38,172.72H397.44a12.78,12.78,0,0,1,12.78,12.78V357.88c0,5-3.27,9-7.31,9H279.28v35.38h73.25a9.91,9.91,0,0,1,9.91,9.91H146a9.91,9.91,0,0,1,9.91-9.91h73.25V366.85H103.91c-4,0-7.31-4-7.31-9V185.51A12.78,12.78,0,0,1,109.38,172.72Z"/><path class="cls-7" d="M149.05,402.23H222.3V360.39h50.16v41.83H345.7a9.91,9.91,0,0,1,9.91,9.91H139.14A9.91,9.91,0,0,1,149.05,402.23Z"/><path class="cls-7" d="M89.77,334.08V185.51a12.78,12.78,0,0,1,12.78-12.78H390.62a12.78,12.78,0,0,1,12.78,12.78V334.08Z"/><path class="cls-7" d="M403.4,334.08v23.81c0,5-3.27,9-7.31,9h-299c-4,0-7.31-4-7.31-9V334.08Z"/><path class="cls-8" d="M97.12,327.62V185.9a6.85,6.85,0,0,1,7-6.73h285a6.85,6.85,0,0,1,7,6.73V327.62Z"/><path class="cls-9" d="M193.86,261l10.53-25.14-17-22.53-27.26,3.17-10.72,25.2-26.94,3.13-11,26,16.66,22.14,27-3.3,16.32,21.7,28-3.42,10.6-25.31Zm-33-43.59,26.13-3L203.26,236,193.18,260.1l0,0L166,263.22l-15.73-20.9Zm-48.25,53.23,10.59-24.9,26.13-3,16.15,21.47-10.41,24.46-26.49,3.23ZM198.82,307,172,310.28l-15.75-20.94,10.4-24.84,26.24-3.2L209,282.74Z"/><circle class="cls-10" cx="187.4" cy="214.39" r="3.3"/><circle class="cls-10" cx="123.04" cy="245.7" r="3.3"/><circle class="cls-10" cx="203.26" cy="236.24" r="3.3"/><circle class="cls-10" cx="208.97" cy="282.5" r="3.3"/><circle class="cls-10" cx="171.78" cy="310.28" r="3.3"/><circle class="cls-10" cx="165.99" cy="263.72" r="3.3"/><circle class="cls-11" cx="196.22" cy="225.66" r="2.03"/><circle class="cls-11" cx="149.84" cy="242.4" r="2.03"/><circle class="cls-11" cx="193.15" cy="261.06" r="1.91"/><circle class="cls-11" cx="111.48" cy="270.71" r="2.78"/><path class="cls-11" d="M184.67,205.92V193.45H186v5.33h6.26v-5.33h1.36v12.47h-1.36V200H186v5.94Z"/><path class="cls-11" d="M215.54,288.9V276.43h1.36v5.33h6.26v-5.33h1.36V288.9h-1.36V283H216.9v5.94Z"/><path class="cls-11" d="M195.53,210.62v-.87a6.46,6.46,0,0,1,.8-1.33,9.28,9.28,0,0,1,1.24-1.29q.33-.29,1.06-.82a8.18,8.18,0,0,0,1-.83,3.76,3.76,0,0,0,.65-.89,1.89,1.89,0,0,0,.21-.85,1.69,1.69,0,0,0-.47-1.26,1.78,1.78,0,0,0-1.3-.46,2,2,0,0,0-1.41.51,2.65,2.65,0,0,0-.77,1.47l-.9-.19a3.36,3.36,0,0,1,1.06-1.94,3.06,3.06,0,0,1,2-.66,2.85,2.85,0,0,1,2,.67,2.35,2.35,0,0,1,.74,1.83,3.09,3.09,0,0,1-.12.89,2.45,2.45,0,0,1-.37.74,9.44,9.44,0,0,1-2,1.79l-.49.36a9.37,9.37,0,0,0-1.3,1.16,4.17,4.17,0,0,0-.75,1.11h5v.86Z"/><path class="cls-9" d="M324,127.68H407.1a5.21,5.21,0,0,1,5.2,5.21v59.25a5.21,5.21,0,0,1-5.2,5.21H341.68c-2.65,3.71-7.45,10.35-7.87,10.35s.37-6.27.91-10.35H324a5.21,5.21,0,0,1-5.2-5.21V132.89A5.21,5.21,0,0,1,324,127.68Z"/><polygon class="cls-12" points="348.04 172.55 346.97 172.15 355.9 148.59 382.43 157.04 395.32 138.09 396.27 138.74 382.9 158.4 356.59 150.02 348.04 172.55"/><circle class="cls-10" cx="344.82" cy="176.01" r="10.21" transform="translate(-36.51 109.19) rotate(-17.1)"/><circle class="cls-10" cx="382.93" cy="158.59" r="6.6" transform="translate(-29.7 119.63) rotate(-17.1)"/><circle class="cls-10" cx="395.8" cy="138.41" r="2.27" transform="translate(-23.2 122.52) rotate(-17.1)"/><circle class="cls-10" cx="356.24" cy="149.3" r="5.46" transform="translate(-28.15 111.37) rotate(-17.1)"/><rect class="cls-13" x="362" y="171.41" width="43.07" height="2.07"/><rect class="cls-13" x="362" y="177.26" width="31.19" height="2.07"/><rect class="cls-13" x="325" y="135.18" width="31.19" height="2.07"/><rect class="cls-13" x="325" y="141" width="22.71" height="2.07"/><rect class="cls-13" x="362" y="183.1" width="43.07" height="2.07"/><path class="cls-14" d="M280.05,159.29H216.8a4,4,0,0,0-4,4v45.1a4,4,0,0,0,4,4H266.6c2,2.82,5.67,7.87,6,7.87s-.28-4.77-.69-7.87h8.15a4,4,0,0,0,4-4v-45.1A4,4,0,0,0,280.05,159.29Z"/><path class="cls-13" d="M265.09,180a29.36,29.36,0,0,0-2.88-.93,29.4,29.4,0,0,0,.64-3c.7-4.42,0-7.5-2.09-8.68s-5.08-.28-8.56,2.53a29.39,29.39,0,0,0-2.25,2,29.39,29.39,0,0,0-2.25-2c-3.48-2.81-6.52-3.71-8.56-2.53s-2.79,4.26-2.09,8.68a29.45,29.45,0,0,0,.64,3,29.39,29.39,0,0,0-2.88.93c-4.17,1.61-6.47,3.79-6.47,6.15s2.3,4.54,6.47,6.15a29.41,29.41,0,0,0,2.88.93,29.45,29.45,0,0,0-.64,3c-.7,4.42,0,7.5,2.09,8.68a3.92,3.92,0,0,0,2,.51c1.83,0,4.09-1,6.57-3a29.39,29.39,0,0,0,2.25-2,29.39,29.39,0,0,0,2.25,2c2.48,2,4.74,3,6.57,3a3.92,3.92,0,0,0,2-.51c2-1.18,2.79-4.26,2.09-8.68a29.4,29.4,0,0,0-.64-3,29.39,29.39,0,0,0,2.88-.93c4.17-1.61,6.47-3.79,6.47-6.15S269.27,181.56,265.09,180Zm-12.39-9.41c2.31-1.87,4.43-2.85,6.07-2.85a3.11,3.11,0,0,1,1.58.39c1.71,1,2.32,3.85,1.69,7.85a28.68,28.68,0,0,1-.62,2.88,44.55,44.55,0,0,0-6.65-1.07,44.56,44.56,0,0,0-4.26-5.23A28.61,28.61,0,0,1,252.71,170.55Zm4,19.44c-.74,1.29-1.53,2.53-2.34,3.7-1.42.12-2.89.17-4.38.17s-3-.06-4.38-.17c-.81-1.17-1.59-2.41-2.34-3.7s-1.42-2.59-2-3.88c.61-1.29,1.29-2.59,2-3.88s1.53-2.53,2.34-3.7c1.42-.11,2.89-.17,4.38-.17s3,.06,4.38.17c.81,1.17,1.59,2.41,2.34,3.7s1.42,2.59,2,3.88C258.09,187.4,257.41,188.69,256.66,190Zm2.48-2.92a43,43,0,0,1,2.07,5.55,43,43,0,0,1-5.83,1q1-1.54,2-3.2C258,189.28,258.6,188.17,259.14,187.06Zm-5.42,7.48a43,43,0,0,1-3.77,4.56,43,43,0,0,1-3.77-4.56c1.23.08,2.49.13,3.77.13S252.48,194.63,253.72,194.55Zm-9.19-1a43,43,0,0,1-5.83-1,43,43,0,0,1,2.07-5.55c.54,1.11,1.13,2.22,1.77,3.33S243.83,192.57,244.52,193.59Zm-3.77-8.44a43,43,0,0,1-2.07-5.55,43,43,0,0,1,5.83-1q-1,1.54-2,3.2C241.89,182.93,241.3,184,240.76,185.15Zm5.42-7.48a43,43,0,0,1,3.77-4.56,43,43,0,0,1,3.77,4.56c-1.23-.08-2.49-.13-3.77-.13S247.41,177.58,246.18,177.67Zm11.19,4.16q-1-1.66-2-3.2a43,43,0,0,1,5.83,1,43,43,0,0,1-2.07,5.55C258.6,184,258,182.93,257.37,181.82Zm-19.52-5.89c-.63-4,0-6.87,1.69-7.85a3.11,3.11,0,0,1,1.58-.39c1.64,0,3.75,1,6.07,2.85a28.65,28.65,0,0,1,2.19,2,44.56,44.56,0,0,0-4.26,5.23,44.56,44.56,0,0,0-6.65,1.07A28.65,28.65,0,0,1,237.85,175.94Zm-2.76,15.56c-3.78-1.46-6-3.42-6-5.39s2.17-3.94,6-5.39a28.61,28.61,0,0,1,2.81-.91,44.53,44.53,0,0,0,2.4,6.3,44.53,44.53,0,0,0-2.4,6.3A28.63,28.63,0,0,1,235.09,191.5Zm12.1,10.17c-3.15,2.55-5.94,3.45-7.65,2.46s-2.32-3.85-1.69-7.85a28.66,28.66,0,0,1,.62-2.88,44.56,44.56,0,0,0,6.65,1.07,44.53,44.53,0,0,0,4.26,5.23A28.63,28.63,0,0,1,247.19,201.67ZM262,196.28c.63,4,0,6.87-1.69,7.85s-4.49.09-7.65-2.46a28.59,28.59,0,0,1-2.19-2,44.54,44.54,0,0,0,4.26-5.23,44.56,44.56,0,0,0,6.65-1.07A28.68,28.68,0,0,1,262,196.28Zm2.76-4.78a28.63,28.63,0,0,1-2.81.91,44.54,44.54,0,0,0-2.4-6.3,44.54,44.54,0,0,0,2.4-6.3,28.63,28.63,0,0,1,2.81.91c3.78,1.46,6,3.42,6,5.39S268.59,190,264.8,191.5Z"/><circle class="cls-15" cx="249.95" cy="186.11" r="3.84"/><circle class="cls-10" cx="234.5" cy="180.75" r="2.1"/><rect class="cls-13" x="216.77" y="163.23" width="26.05" height="1.34"/><rect class="cls-13" x="216.77" y="167.02" width="17.47" height="1.34"/><rect class="cls-13" x="216.77" y="170.81" width="10.71" height="1.34"/><rect class="cls-13" x="217.71" y="201.36" width="17.47" height="1.34"/><rect class="cls-13" x="217.71" y="205.15" width="10.71" height="1.34"/><path class="cls-16" d="M203.81,104.67c-13,6.45-12.23,26.47,1.25,31.48a10.73,10.73,0,0,1,5.66,5.11l4.31,8.13a4.52,4.52,0,0,0,6,2L226,149a5.13,5.13,0,0,0,2.47-6.23c-3-8.81-4.76-11.82-3-16.69C230.6,111.8,216.83,98.22,203.81,104.67Z"/><path class="cls-17" d="M223,138l-1.69.75c-.1-.28-3.16-8-6.29-17.41a22.27,22.27,0,0,1-5.81,3.73c3.28,7.27,7.17,17.4,7.18,17.43l-1.7.75s-3.92-10.22-7.22-17.51c-3.41,1.07-4.92-.36-5.43-1a3.44,3.44,0,0,1-.1-3.91c1.22-1.73,4.26-1.43,6.41,2.54a20.51,20.51,0,0,0,6-4,10.33,10.33,0,0,1-.88-4.56,3.13,3.13,0,0,1,2.75-2.87c2-.07,4.13,2.86,1.67,6.34a15,15,0,0,1-1.4,1.66C219.85,129.91,222.82,137.4,223,138Zm-7.2-20.17c2.21-2.54,1.21-3.87.6-4C215,114.79,215.12,115.63,215.84,117.81ZM203.32,123c.29,1.41,2,1.37,3.31,1C205,121.16,202.95,121.15,203.32,123Z"/><path class="cls-18" d="M210.61,141.06l.12.2,4.31,8.13a4.52,4.52,0,0,0,6,2L226,149a5.13,5.13,0,0,0,2.47-6.23c-1.35-3.92-2.44-6.69-3.08-9Z"/><path class="cls-17" d="M234.33,100l-4,3.65c-1.05,1-2.44,2.69-4,2.68a.77.77,0,0,1-.76-.76c.17-1.58,1.91-2.69,3-3.68l4.06-3.63c1.16-1,2.85.69,1.69,1.74Z"/><path class="cls-17" d="M219.21,89.34c-2.43,9.68-2.26,9.44-2.93,10.18a1,1,0,0,1-1.71-.48c-.22-.91-.18-.66,2.35-10.32a1.19,1.19,0,0,1,2.3.62Z"/><path class="cls-17" d="M198.87,100.36,195.8,95.8c-.91-1.35-2.26-2.8-2.45-4.46-.08-.73.83-1.09,1.38-.79,1.43.78,2.3,2.75,3.18,4.06l3,4.57c.85,1.28-1.23,2.44-2.09,1.17Z"/><path class="cls-17" d="M189,125.25a78.94,78.94,0,0,1-7.84,2.85c-1.44.4-1.93-1.72-.57-2.21,2.62-.94,5.25-1.81,7.84-2.83,1.36-.53,1.9,1.65.57,2.19Z"/><path class="cls-17" d="M189.26,112.46c-1.66-.2-3.31-.44-5-.71s-3.46-.24-4.68-1.2c-.64-.51-.17-1.5.48-1.7.82-.25,1.06-.06,4.63.53,1.61.27,3.23.5,4.84.78,1.29.23,1,2.46-.31,2.3Z"/><path class="cls-10" d="M282.59,113.13l-7.13-2.87-20.53,24.33a4,4,0,0,0,1.51,6.34h0a3.94,3.94,0,0,0,4.51-1.17l4.78-5.76,7.49,3-.43,7.55a4,4,0,0,0,2.47,3.93l.14.05a4,4,0,0,0,5.44-3.55Zm-12.17,14.93,3.77-4.47-.33,5.86Z"/><path class="cls-19" d="M129.44,126.4c.33,0,1.24.32,2.56,2.82,1.69,3.2,4.17,12.87,4.17,12.87l-7.39,2.75-.95-2-1.56-15.54S129.34,126.4,129.44,126.4Z"/><path class="cls-20" d="M119.67,125a45.13,45.13,0,0,1,9.77,1.39s1.78,15.32-1.6,27c-.76,2.61.63,10.8.63,10.8l-21.89-.29s2.59-19.82,1.62-23-1-14.36-1-14.36l4.92-.85A49.56,49.56,0,0,1,119.67,125Z"/><path class="cls-21" d="M117.12,192.61s.48,5.59,1.37,7.14,0,4.18-.09,4.54-1.87.88-4.78.57-2.86-1-2.62-2.06,1.78-2.48,1.87-3.51a26.94,26.94,0,0,0-.89-4.75Z"/><path class="cls-22" d="M126,159.56s15.11-.84,18.49,1.2-2.4,12.08-2.4,12.08-10.52-.48-31.12.7c-4.88.28-5.3-12.72-4.39-13.79S126,159.56,126,159.56Z"/><path class="cls-23" d="M113.25,205.29c-3-.32-2.62-1.79-2.38-2.9a9.89,9.89,0,0,1,1.52-2.3,5,5,0,0,0,2,1c1.35.4,3.2-.39,4.38-.88a14.45,14.45,0,0,1,.4,3.86C119.13,204.4,116.25,205.61,113.25,205.29Z"/><path class="cls-9" d="M114.91,170.37c.6,4.57,3.59,27.32,3.59,27.32l-6.94.86s-8.53-29.69-8.09-34.23,3.63-4.92,3.63-4.92S113.31,158.27,114.91,170.37Z"/><path class="cls-21" d="M106.94,128.21c2-.77,3,17.68,3.32,25.27a89.2,89.2,0,0,0,11.52-.12c.74-.06,2.45-.68,3.18-.78a7.37,7.37,0,0,1,1.81-.09,34.16,34.16,0,0,1,4.24,1.91c.4.42,1.48,1.48,1.3,1.94s-2.08-1.28-2.08-1.28l-.93-.52c1.16,1.13,3.36,2.62,3,3.16s-2.3-1-3.72-2c1.22,1.1,2.73,3.07,2.38,3.37s-2-2-3.87-2.66c-.68-.24-1.36.43-1.9.51a3.85,3.85,0,0,1-1.39.08l-2-.56c-.68.06-.69.46-1.38.61s-2.1.35-3.11.59c-5.83,1.42-7.77,2.08-9.55,2.08C102.42,159.72,102.1,130,106.94,128.21Z"/><path class="cls-19" d="M103.06,145.53c-.38-7.78-.33-17.36,4-19,1.72-.65,4.75,3.23,4.21,19.16A32.75,32.75,0,0,1,103.06,145.53Z"/><path class="cls-21" d="M138.13,198a3.78,3.78,0,0,0-.21,3.25c.79,1.48,4.92,3.67,5.36,4.47a2,2,0,0,1,.26,1.37l-12.28-3,.94-3.7,1.15-2.56Z"/><path class="cls-23" d="M138.55,202.07s-3.45.6-4.82-.49-1.28-1.29-1.78-1.1c-.32.12-.82,1.6-1.13,2.63a1,1,0,0,0,.73,1.27l12.79,3.16c1,.19,1.61-.42,1-1.2a11.59,11.59,0,0,0-1.32-1.23A44.45,44.45,0,0,0,138.55,202.07Z"/><path class="cls-9" d="M136.92,163.14c1-2.06,3.2-4.73,7.11-3.12,3.73,1.54,4.73,5.32,3.55,9.19s-8.92,26.62-9.19,29.75l-6.18,0s1.12-18,1.4-22.37A42.17,42.17,0,0,1,136.92,163.14Z"/><path class="cls-24" d="M147,142.19H126.29A1.35,1.35,0,0,0,125,143l-6.37,15.58h-11.4a.58.58,0,0,0-.58.58h0a.58.58,0,0,0,.58.58h32.44a2.26,2.26,0,0,0,2.07-1.34l6.41-14.33A1.35,1.35,0,0,0,147,142.19Z"/><ellipse class="cls-25" cx="134.73" cy="151.04" rx="1.29" ry="1.13" transform="translate(-39.86 253.42) rotate(-78.66)"/><path class="cls-26" d="M124.58,106.3a15.82,15.82,0,0,1-1.83-.73,9.17,9.17,0,0,0-2.09-.79,5,5,0,0,0-4.23,1.13c-1.36,1.48-3.79.27-3.3,8,.55,8.77,5.43,7.81,5.55,7.66L123,116s1.48,3.24,1.48,3.12S132.06,108.82,124.58,106.3Z"/><path class="cls-21" d="M120.88,122.23l.42,3.13s.94,4.51-.27,5.38-5.16-5.51-5.16-5.51l.42-7.94Z"/><path class="cls-10" d="M116.15,119.87a9,9,0,0,0,5.08,5l-.36-2.66-4.59-4.93Z"/><path class="cls-21" d="M120.63,108.65a4.18,4.18,0,0,1,4.81,4.23,31.77,31.77,0,0,1-.35,4c-.56,3.62-3,6.8-4.66,6.52s-5.74-3.4-5-8.55C115.86,111.69,117.93,109.09,120.63,108.65Z"/><ellipse class="cls-21" cx="115.38" cy="115.27" rx="1.46" ry="1.19" transform="translate(-17.99 209.14) rotate(-80.11)"/><path class="cls-26" d="M115.62,113.83s2,.49,2.7-.78,3.35-4,6.68-2.87-2.93-2.76-3.19-2.76l-3.46,0s-2.46,2-2.55,2.25-.8,2.65-.8,2.65Z"/><path class="cls-25" d="M119.23,119.13l3.59.69a1.6,1.6,0,0,1-1.93,1.1C119,120.6,119.23,119.13,119.23,119.13Z"/><path class="cls-9" d="M321,283.89l-.57,127.62,78.7.35Zm39.12,78.4-32.46-.15.24-54.26Zm-32.47,4.12,35,.16,22.09,37.3-57.26-.26Z"/><path class="cls-27" d="M245.7,386.73h-4.15a4,4,0,0,1,2.45-.82H347.85a9.74,9.74,0,0,1,9.84,9.64v6.13a9.74,9.74,0,0,1-9.84,9.64l-102.69,0Z"/><path class="cls-28" d="M304.66,385.93a9.32,9.32,0,0,1,9.41,9.22v6.92a9.32,9.32,0,0,1-9.41,9.22H240v-1.55h.27l16.43-1.53L260,395.45s-6.41-7.06-6.83-7.24-12.93-.73-12.93-.73H240v-1.54Z"/><path class="cls-29" d="M244.2,398.57c0-7.47-3.94-11.09-3.94-11.09h63.07a8.56,8.56,0,0,1,8.64,8.47v5.33a8.56,8.56,0,0,1-8.64,8.47H240.27S244.2,408,244.2,398.57Z"/><path class="cls-30" d="M312,395.95v5.33a8.34,8.34,0,0,1-.25,2,18.48,18.48,0,0,0-14-11.6c-18.12-3.69-57.49-4.24-57.49-4.24h63.07A8.56,8.56,0,0,1,312,395.95Z"/><path class="cls-11" d="M362.05,366.41h4.15a4.77,4.77,0,0,0-2.45-.65H259.86c-5.44,0-9.84,3.43-9.84,7.65v4.86c0,4.23,4.41,7.65,9.84,7.65l102.73,0Z"/><path class="cls-31" d="M303.07,365.78c-5.2,0-9.41,3.28-9.41,7.32v5.49c0,4,4.21,7.32,9.41,7.32h64.67v-1.23h-.27L351,383.47l-3.32-10.14s6.41-5.6,6.83-5.75,12.93-.58,12.93-.58h.27v-1.22Z"/><path class="cls-29" d="M363.55,375.81a11.17,11.17,0,0,1,3.94-8.8H304.4c-4.77,0-8.64,3-8.64,6.72V378c0,3.71,3.87,6.72,8.64,6.72h63.09S363.55,383.27,363.55,375.81Z"/><path class="cls-30" d="M295.75,373.73V378a5.33,5.33,0,0,0,.25,1.61c2.13-4,6.21-7.95,14-9.2,18.13-2.93,57.52-3.36,57.52-3.36H304.4C299.62,367,295.75,370,295.75,373.73Z"/><polygon class="cls-10" points="354.32 375.71 350.32 382.04 345.85 375.71 354.32 375.71"/><path class="cls-30" d="M295.81,375.71h67.75v-.51c0-.07-67.8,0-67.8,0Z"/><polygon class="cls-11" points="253.48 399.15 257.47 405.48 261.94 399.15 253.48 399.15"/><path class="cls-30" d="M312,399.15H244.24v-.51c0-.07,67.8,0,67.8,0Z"/><path class="cls-10" d="M262.21,346.35h-3.27a3.2,3.2,0,0,1,1.94-.65h82a7.7,7.7,0,0,1,7.77,7.62v4.84a7.7,7.7,0,0,1-7.77,7.62l-81.12,0Z"/><path class="cls-20" d="M308.78,345.72a7.36,7.36,0,0,1,7.43,7.29v5.47a7.36,7.36,0,0,1-7.43,7.29H257.71v-1.22h.21l13-1.21,2.62-10.09s-5.07-5.58-5.4-5.72-10.21-.58-10.21-.58h-.21v-1.22Z"/><path class="cls-29" d="M261,355.71c0-5.9-3.11-8.76-3.11-8.76h49.83a6.76,6.76,0,0,1,6.83,6.69v4.21a6.76,6.76,0,0,1-6.83,6.69H257.91S261,363.14,261,355.71Z"/><path class="cls-30" d="M314.57,353.64v4.21a6.58,6.58,0,0,1-.2,1.61,14.6,14.6,0,0,0-11-9.16c-14.31-2.91-45.42-3.35-45.42-3.35h49.83A6.76,6.76,0,0,1,314.57,353.64Z"/><polygon class="cls-32" points="296.22 355.29 299.74 361.55 302.91 355.29 296.22 355.29"/><path class="cls-30" d="M314.57,355.29H261v-.51c0-.07,53.57,0,53.57,0Z"/><path class="cls-9" d="M292.74,295.24c1.1-2.64,2.21-5.28,5.06-6.62a6.37,6.37,0,0,1,6.76.86c5.8,4.36.75,9.16,7.35,17.43,2.05,2.57,4.53,4.64,5.76,7.65,1.72,4.21-1.28,10.38-4.56,12.4-15.71,9.66-23-14.32-22.7-18.85C290.62,304.74,292,296.94,292.74,295.24Z"/><path class="cls-21" d="M276.43,346.63c.66-.1,2.27-1.26,2.84-1.36s1.39-.23,1.8-.29c.5-1.86,3-12,3.3-14.94.31-3.21,2.58-17.11,2.58-17.11l5.88,1.07s-2.44,10.69-3.12,15.87c-.58,4.45-5.47,14.46-6.09,15.52,0,0,0,.05,0,.08-.09,1.57-.85,1-.85,1l-1.23.31s-4.35.42-4.64.52S275.77,346.73,276.43,346.63Z"/><path class="cls-31" d="M292.08,304.81c-4.16,1.41-6.52,12.71-6.52,12.71s6.52,1.82,8.19.87c0,0,1.9-8.41,2.58-8.12Z"/><path class="cls-21" d="M259.91,366.16a44.46,44.46,0,0,0-2,7c0,.19.24,1.1.21,1.3-2.55,3.48-6.22,4.25-9.37,4.47,1.6-1.57,4-3,4.07-3.54a61.56,61.56,0,0,0,1.62-9.17C256.42,367.09,257.74,366.37,259.91,366.16Z"/><path class="cls-33" d="M296.1,328.62l5.62,15.83s-9,1.7-12.41,2.32-22.24,1.44-22.72,1.78-4.25,12.85-6,19.8a16.35,16.35,0,0,1-7.15-.71c1-9.94,4.48-25.69,5.6-27.41C260.89,337.43,296.1,328.62,296.1,328.62Z"/><path class="cls-21" d="M274.15,373.1a44.49,44.49,0,0,0-.65,7.23c0,.19.44,1,.45,1.23-1.86,3.9-5.32,5.34-8.37,6.14,1.28-1.84,3.32-3.74,3.33-4.24a61.57,61.57,0,0,0-.12-9.31C270.89,374.66,272.06,373.71,274.15,373.1Z"/><path class="cls-34" d="M302.66,329.44l2.18,3.72a10.67,10.67,0,0,1-5.35,15.34l-.1,0c-3.2,1.24-21.57,5.58-22,6s-1.77,13.42-2.18,20.57a16.35,16.35,0,0,1-7.16.65c-.91-9.95-.41-26.08.37-28C269.72,344.7,302.66,329.44,302.66,329.44Z"/><path class="cls-32" d="M273.22,380.43c.49-.54,2.29,2.43,2.73,3.07a1.42,1.42,0,0,1,.3,1.36c-.16.29-9.63,5.87-11.94,6.26a1.16,1.16,0,0,1-.69-.18c-.9-.8,3.25-6.7,5.12-7.47A9,9,0,0,0,273.22,380.43Z"/><path class="cls-32" d="M257.62,373.24c.58-.44,1.79,2.82,2.11,3.53a1.42,1.42,0,0,1,0,1.4c-.21.26-10.56,4-12.9,3.91a1.16,1.16,0,0,1-.64-.31c-.74-1,4.45-6,6.43-6.38A9,9,0,0,0,257.62,373.24Z"/><path class="cls-11" d="M296,304.78h0a1.55,1.55,0,0,1-.42-.09,7.24,7.24,0,0,0-3.77.21c-1.6.67-4.07,7-3.93,13.44.06,1,.12,1.87.17,2.49.4,4.88,1.8,14,1.88,14.1,1.91,1.23,13.41-3.53,14.2-4.57s1.26-13.74,1.64-14.37l.76-11C305.21,304.55,298.06,304.77,296,304.78Z"/><path class="cls-21" d="M300.68,300.71a29.43,29.43,0,0,0-.59,5.34c.15,1.51-.56,6.38-3.76,6.4s-.61-6.19-.31-7.67a56.65,56.65,0,0,0,.37-6.06Z"/><path class="cls-10" d="M296.33,301c0-1.25.07-2.3.07-2.3l4.29,2s-.15.78-.3,1.78A3.74,3.74,0,0,1,296.33,301Z"/><path class="cls-21" d="M302.25,290.14a5.31,5.31,0,0,1,2.26,2.9c.6,2-.08,7.11-4.35,8.35s-6.12-2.82-5.24-6S297.71,288.21,302.25,290.14Z"/><ellipse class="cls-21" cx="295.28" cy="294.08" rx="0.9" ry="1.55" transform="translate(-27.3 30.23) rotate(-5.6)"/><path class="cls-9" d="M301.75,289.89s.77,5.72,2.62,6.75,1.07,3.57,1.07,3.57,1.68-5.89.22-7.78A8.14,8.14,0,0,0,301.75,289.89Z"/><ellipse class="cls-21" cx="304.19" cy="298.07" rx="1.63" ry="1.1" transform="matrix(0.56, -0.83, 0.83, 0.56, -112.93, 384.04)"/><path class="cls-25" d="M297.06,297.78l3,.76a1.37,1.37,0,0,1-1.69.85C296.75,299,297.06,297.78,297.06,297.78Z"/><path class="cls-21" d="M325.25,345.49c-.05-.14-.17-.14-.3-.14a30.26,30.26,0,0,1-3.56-.27,2.55,2.55,0,0,1-.57-.15,1.49,1.49,0,0,0-1,0,2,2,0,0,1-.55.06c-.6,0-2.31-.58-3.18-.74a.52.52,0,0,1-.41-.38c-.86-3.41-2.71-11.07-3-13.59-.31-3.22-2.53-17.74-2.53-17.74l-5.95,1.66s2.45,10.72,3.13,15.91c.52,4,4.53,12.53,5.79,15A2.51,2.51,0,0,0,315.5,347a.74.74,0,0,1,.47.25,3.34,3.34,0,0,0,.75.65,1.76,1.76,0,0,1,.51.51c.25.37.48.75.7,1.14s.3.34.52.28a.47.47,0,0,0,.34-.53,2.36,2.36,0,0,0-.36-1.17.64.64,0,0,1,0-.85,2.69,2.69,0,0,1,.45-.5.77.77,0,0,1,.61-.22,9.8,9.8,0,0,0,1.3.24l.36.07.2,0s.66.08.88.08l.7,0a3.84,3.84,0,0,0,.69-.1.84.84,0,0,0,.56-.22c.06-.06.13-.12.09-.22a.22.22,0,0,0-.19-.15,8.46,8.46,0,0,1-.87-.15l1.13,0a1,1,0,0,0,.76-.33C325.21,345.71,325.31,345.62,325.25,345.49Z"/><path class="cls-11" d="M306.61,304.92c2.94-.53,5.36,12.6,5.36,12.6s-6.52,1.82-8.19.87c0,0-1.9-8.41-2.58-8.12Z"/><path class="cls-10" d="M261.7,323.18h16.41a1.07,1.07,0,0,1,1,.67l5.05,12.37h9a.46.46,0,0,1,.46.46h0a.46.46,0,0,1-.46.46H267.45a1.8,1.8,0,0,1-1.64-1.07l-5.09-11.37A1.07,1.07,0,0,1,261.7,323.18Z"/><ellipse class="cls-25" cx="351.42" cy="330.2" rx="0.9" ry="1.03" transform="translate(-58.08 75.57) rotate(-11.34)"/><rect class="cls-1" width="500" height="500"/></g></g></g></svg>