<svg xmlns="http://www.w3.org/2000/svg" xmlns:xlink="http://www.w3.org/1999/xlink" viewBox="0 0 500 513.11"><defs><style>.cls-1,.cls-13,.cls-14{fill:none;}.cls-2{clip-path:url(#clip-path);}.cls-3{fill:#f9e9c0;}.cls-4{fill:#e8d2a0;}.cls-5{fill:#fff8d9;}.cls-6{fill:#323758;}.cls-7{fill:#c64f32;}.cls-8{clip-path:url(#clip-path-2);}.cls-9{fill:#fbfaf5;}.cls-10{fill:#d99278;}.cls-11{clip-path:url(#clip-path-3);}.cls-12{fill:#f0c553;}.cls-13{stroke:#d1a542;}.cls-13,.cls-14{stroke-miterlimit:10;}.cls-14{stroke:#323758;}</style><clipPath id="clip-path"><circle class="cls-1" cx="250" cy="250" r="220.19"/></clipPath><clipPath id="clip-path-2"><path class="cls-1" d="M341.53,290.44c0-37-36-67-80.37-67s-80.37,30-80.37,67l4.47,145.1,147.47-.46Z"/></clipPath><clipPath id="clip-path-3"><path class="cls-1" d="M239,193.21s-1.62,29.79-6.24,34.87c0,0,5.54,23.56,27,23.1s27.71-24,27.71-24c-.2.49-14.95-37.37-15.94-44.11C270.83,178.13,239,193.21,239,193.21Z"/></clipPath></defs><title>TeacherSVG</title><g id="OBJECTS"><rect class="cls-1" width="500" height="500"/><g class="cls-2"><rect class="cls-3" width="500" height="500"/><path class="cls-4" d="M228.53,276.1c-39.93-21.7-60.41-61-70.56-90.07a239.61,239.61,0,0,1-12.59-58.53l1-.05a238.59,238.59,0,0,0,12.54,58.28C169,214.66,189.37,253.68,229,275.22Z"/><path class="cls-4" d="M154.55,105.63a56.24,56.24,0,0,1,4.94,13.59c1,4.69,1.87,9.51,1.17,14.55a42.26,42.26,0,0,1-1.88,7.25c-.78,2.31-1.49,4.58-2.18,6.87s-1.32,4.59-1.95,6.91-1.23,4.64-2,7l-1,3-2.75-2.57c-2.74-2.56-5.31-5.33-8-7.94s-5.33-5.26-7.88-8-5.08-5.42-7.73-8q-2-2-4.06-3.69a14.2,14.2,0,0,0-4.64-2.75v-.6a11.25,11.25,0,0,1,6.05.82,34,34,0,0,1,5.39,2.65,64.8,64.8,0,0,1,9.37,7,76.24,76.24,0,0,1,8,8.39,104.5,104.5,0,0,1,7,9.19l-3.73.47a59.16,59.16,0,0,0,6.24-12.57,30.53,30.53,0,0,0,1.47-6.84,31.19,31.19,0,0,0-.11-6.81c-.68-4.44-1.09-9-1.53-13.69a128.12,128.12,0,0,1-.72-14.23Z"/><path class="cls-4" d="M115.13,138.15a108,108,0,0,1,10,7.74q4.77,4.08,9.25,8.38c3,2.88,5.59,6.15,8.46,9.17a34,34,0,0,0,4.62,4.12,20.14,20.14,0,0,0,2.58,1.6,7.55,7.55,0,0,0,2.62.86l-1,.59c1-2.56,2-5.13,3.1-7.69.55-1.28,1.12-2.56,1.74-3.82.3-.64.65-1.25,1-1.87l.53-.93.45-.81a47.32,47.32,0,0,0,3.07-7c.87-2.44,1.6-4.94,2.27-7.43a66.24,66.24,0,0,0,1.59-7.39,21.06,21.06,0,0,0,.23-3.47,33.58,33.58,0,0,0-.42-3.68c-.88-5.08-2.4-10.32-3.71-15.66l.54-.27a52.3,52.3,0,0,1,4.57,7,48.92,48.92,0,0,1,3.5,7.69,27.61,27.61,0,0,1,1.17,4.3,22.16,22.16,0,0,1,.22,4.66,37.87,37.87,0,0,1-1.48,8.57,55,55,0,0,1-3,8,43.66,43.66,0,0,1-4.29,7.52c-.22.29-.47.62-.68.88l-.63.74-1.23,1.53c-.83,1-1.63,2.09-2.42,3.18a53.36,53.36,0,0,0-4.28,6.82l-.36.7-.66-.11a11.52,11.52,0,0,1-3.26-1.23q-1.44-.8-2.79-1.65L141,165.69a70.82,70.82,0,0,1-10.31-7.51A99.92,99.92,0,0,1,122,149a72.42,72.42,0,0,1-7.35-10.4Z"/><path class="cls-4" d="M178,123.28a49.88,49.88,0,0,1,1,8,64.88,64.88,0,0,1-.11,8.05c-.1,1.34-.22,2.69-.42,4s-.41,2.68-.67,4c-.11.67-.27,1.33-.45,2s-.35,1.32-.54,2a37.87,37.87,0,0,1-1.48,3.87,28.21,28.21,0,0,1-2,3.69,20.48,20.48,0,0,1-1.17,1.75l-1.32,1.66c-.85,1.06-1.75,2-2.56,3s-1.59,2.08-2.33,3.16a52,52,0,0,0-6.62,14l-.51,1.74-2-.82c-2.31-.93-4.64-1.85-6.93-2.83l-6.83-3c-4.56-2-9.12-3.95-13.58-6.1L116,165.08c-2.23-1.06-4.47-2.08-6.73-3.06a44.39,44.39,0,0,0-7-2.44V159a25,25,0,0,1,7.77.13,65.24,65.24,0,0,1,7.53,1.59,113.28,113.28,0,0,1,14.36,5,141.06,141.06,0,0,1,13.53,6.73c2.2,1.22,4.41,2.42,6.57,3.72s4.26,2.69,6.36,4.13l-2.54.92c.68-1.27,1.37-2.38,2.08-3.54l2.14-3.4c1.42-2.25,2.83-4.49,4.2-6.77s2.7-4.6,3.93-6.93l.76-1.69a18.47,18.47,0,0,0,.63-1.75c.43-1.15.7-2.4,1.05-3.59,1.26-4.83,2.45-9.79,3.47-14.86s2-10.21,3.21-15.42Z"/><path class="cls-4" d="M203,142.75a139.9,139.9,0,0,1-9.92,13.51q-2.63,3.23-5.35,6.35t-5.59,6.1c-1.93,2-4,3.84-5.85,5.81s-3.78,4.1-5.51,6.27a119.61,119.61,0,0,0-9.38,13.8l-.55.92-1.36-.39c-2.69-.76-5.41-1.45-8.08-2.27s-5.31-1.69-8-2.58-5.28-1.77-7.9-2.69-5.27-2-7.68-2.73a100.47,100.47,0,0,0-15.68-3.46c-5.4-.8-10.91-1.28-16.52-1.73l-.07-.6a53.79,53.79,0,0,1,8.35-1.75c1.41-.21,2.83-.35,4.25-.45s2.85-.2,4.28-.2,2.87,0,4.31,0,2.88.15,4.32.35a54.11,54.11,0,0,1,8.61,1.65,80.65,80.65,0,0,1,8,3c2.59,1.07,5.15,2.18,7.72,3.28s5.15,2.19,7.67,3.4,5,2.48,7.54,3.71l-1.91.54a119.12,119.12,0,0,0,10.43-13c1.58-2.3,3-4.68,4.42-7.12a80.07,80.07,0,0,1,4.71-7.08,71,71,0,0,1,5.43-6.4q2.85-3.07,5.89-6a107.92,107.92,0,0,1,12.92-10.76Z"/><path class="cls-4" d="M239.09,245.65a21.49,21.49,0,0,1-2.56,8.47,18.49,18.49,0,0,1-5.51,6.79c-1.22.88-2.52,1.65-3.77,2.45s-2.41,1.64-3.58,2.51-2.36,1.75-3.66,2.6a13.93,13.93,0,0,1-4.47,2l1.85-1.16a16.24,16.24,0,0,1-1.55,3c-.59.93-1.21,1.83-1.9,2.7a18.52,18.52,0,0,1-4.9,4.48A19.09,19.09,0,0,1,202.8,282a14,14,0,0,1-6.64-.16l-.08-.59c1.84-1.19,3.49-2.2,5-3.35s2.92-2.26,4.28-3.45l4.12-3.57c.69-.61,1.37-1.25,2-1.92s1.31-1.39,1.89-2l1.28-1.24.56.08a11.51,11.51,0,0,0,3.69,0,10.13,10.13,0,0,0,3.71-1.46,11.19,11.19,0,0,0,3-2.78,28.92,28.92,0,0,0,2.12-3.59,34,34,0,0,1,4.75-6.59,45,45,0,0,1,6.07-6Z"/><path class="cls-4" d="M98,206.79a33.26,33.26,0,0,1,6.83-6.4,42.06,42.06,0,0,1,8.24-4.6,45.62,45.62,0,0,1,9.13-2.73,32.41,32.41,0,0,1,9.58-.28,63.33,63.33,0,0,1,9.17,1.94c3,.79,5.91,1.68,8.87,2.43,5.88,1.64,11.8,2.94,17.78,4.7l-2.68,1.46a20.76,20.76,0,0,1,.44-2.31,19.9,19.9,0,0,1,.64-2.14,28.1,28.1,0,0,1,1.75-4.07,38.26,38.26,0,0,1,5-7.26,45.58,45.58,0,0,1,6.4-6,80.23,80.23,0,0,1,6.94-4.77c4.7-2.92,9.42-5.54,13.92-8.44,2.27-1.43,4.42-3,6.56-4.62a69.9,69.9,0,0,0,6-5.44l.5.33a34.56,34.56,0,0,1-4.45,7.2,54.4,54.4,0,0,1-5.85,6.16,126.89,126.89,0,0,1-13.25,10.1c-4.47,3.11-8.93,5.94-12.53,9.45a38.58,38.58,0,0,0-6.78,9.13c-.3.56-.57,1.13-.83,1.7s-.51,1.2-.67,1.64l-.87,2.4-1.82-.94c-2.61-1.35-5.37-2.66-8.15-3.78a66.34,66.34,0,0,0-8.58-2.78,59.47,59.47,0,0,0-17.76-1.39c-.72.05-1.44.1-2.16.12s-1.41.14-2.12.21-1.4.11-2.11.24l-2.12.28a67.5,67.5,0,0,0-8.4,1.91,81.07,81.07,0,0,0-16.29,6.94Z"/><path class="cls-4" d="M107.19,219.33a33.69,33.69,0,0,1,6.59-5.56,45.77,45.77,0,0,1,7.65-4.05,41.45,41.45,0,0,1,17-3.43,36.78,36.78,0,0,1,4.36.39c1.44.2,2.82.45,4.22.68l8.35,1.45c2.78.46,5.56.92,8.35,1.49,1.39.31,2.8.58,4.19,1,.7.18,1.4.39,2.11.63.35.12.71.25,1.06.39a9.68,9.68,0,0,1,1.15.53l-2.32.34c1.5-2.26,3-4.47,4.61-6.62s3.34-4.19,5.07-6.25A94.11,94.11,0,0,1,191,188.69c1-.89,2.17-1.73,3.28-2.55s2.09-1.5,3.12-2.28c2.07-1.55,4.15-3.12,6.2-4.76l12.4-10,.46.39a81.39,81.39,0,0,1-9.65,13c-1.81,2-3.7,4-5.7,5.8-1,.94-2,1.82-3.08,2.71s-1.92,1.63-2.86,2.51c-3.78,3.43-7.59,7-11.32,10.69l-5.55,5.6-5.65,5.54-1.31,1.29-1-.94a6,6,0,0,0-.68-.48c-.27-.17-.54-.34-.83-.5-.57-.32-1.16-.64-1.78-.91a36.25,36.25,0,0,0-3.81-1.47,43.23,43.23,0,0,0-8.08-1.69,53.9,53.9,0,0,0-8.29-.26c-1.38.09-2.78.14-4.14.27s-2.68.29-4,.47c-2.65.38-5.27.77-7.89,1.24s-5.22,1.08-7.81,1.82a117.11,117.11,0,0,0-15.44,5.61Z"/><path class="cls-4" d="M107.28,228.49a58.61,58.61,0,0,1,8.3-3.72,83.76,83.76,0,0,1,8.68-2.66,86.54,86.54,0,0,1,8.93-1.76c1.5-.21,3-.42,4.53-.52.76-.06,1.52-.12,2.28-.15l2.29,0c6.14,0,12.12,1.11,18.07,2,3,.44,6,.85,8.92,1.35,1.49.25,3,.51,4.47.82a38.28,38.28,0,0,1,4.55,1.15l-2,.84a60.45,60.45,0,0,1,7.94-17.94,38.13,38.13,0,0,1,6.74-7.75c.69-.62,1.3-1.06,1.93-1.55l1.9-1.44c1.26-1,2.55-1.89,3.83-2.82q7.74-5.55,15.84-10.6c5.4-3.37,10.86-6.66,16.59-9.56l.35.49c-4.49,4.6-9.26,8.81-14.09,12.94s-9.77,8.09-14.84,11.89c-1.27.94-2.54,1.89-3.84,2.8l-1.94,1.37c-.64.45-1.34.91-1.84,1.34a33.85,33.85,0,0,0-6.14,6.16,87.33,87.33,0,0,0-5.18,7.52,75.71,75.71,0,0,0-4.51,8.12l-.72,1.54-1.24-.7a15.68,15.68,0,0,0-1.89-.86c-.67-.27-1.36-.51-2-.75a43.44,43.44,0,0,0-4.25-1.14,51.9,51.9,0,0,0-8.76-1.13c-5.9-.24-11.86.51-17.62,1.1l-8.7.84c-2.9.29-5.81.65-8.72,1-5.83.74-11.67,1.62-17.64,2.41Z"/><path class="cls-4" d="M113.14,244.4a70.45,70.45,0,0,1,8.37-4c2.85-1.18,5.78-2.16,8.73-3.08a76.17,76.17,0,0,1,18.33-3.42,43.44,43.44,0,0,1,4.76.08c1.54.11,3.07.27,4.6.45l9.15,1.09c3,.32,6.08.58,9.13.72s6.09.29,9.18.41l-1.46,1.2a22.68,22.68,0,0,1,3.62-10.31,26,26,0,0,1,1.47-2.23c.5-.74,1-1.43,1.58-2.13s1.11-1.37,1.69-2,1.14-1.33,1.76-1.95c2.39-2.54,4.9-4.93,7.49-7.2s5.24-4.47,8-6.49a158.29,158.29,0,0,1,17.31-11,142.63,142.63,0,0,1,18.52-8.74l.29.52c-5.34,4.26-10.78,8.27-16.18,12.3L213.39,210.7c-5.31,4-10.69,8-15.52,12.41-.62.55-1.2,1.12-1.79,1.68s-1.18,1.13-1.73,1.72c-1.17,1.13-2.25,2.34-3.3,3.55-2.07,2.42-3.89,5.11-4.49,8l-.29,1.41-1.17-.2c-3-.52-6-.94-9-1.18a81.7,81.7,0,0,0-9.1-.36c-3,0-6.08.25-9.11.5l-4.53.37c-1.46.18-2.9.28-4.37.49-2.91.33-5.85.75-8.8,1.17s-5.9,1-8.86,1.49c-5.94,1-11.87,2.24-18,3.18Z"/><path class="cls-4" d="M116.5,259.46a107.68,107.68,0,0,1,18.84-7c3.24-.86,6.51-1.65,9.83-2.24a55,55,0,0,1,10.13-1,50.93,50.93,0,0,1,5.15.22l5,.46c3.31.29,6.63.45,9.94.41s6.63-.21,9.93-.5,6.61-.74,9.88-1.18l-1.62,1.09a82.2,82.2,0,0,1,9-16.46,63.52,63.52,0,0,1,12.72-14.1c.63-.49,1.27-1,1.9-1.47l1.87-1.32c1.24-.89,2.51-1.74,3.77-2.6,2.51-1.74,5.06-3.42,7.62-5.09,5.15-3.3,10.34-6.55,15.79-9.44l.36.48c-4.27,4.47-8.79,8.58-13.36,12.64-2.3,2-4.6,4-7,5.95-1.17,1-2.33,2-3.52,2.92l-1.77,1.44-1.66,1.41c-1.11.9-2.13,1.94-3.2,2.9s-2.08,2-3.06,3.11c-2.05,2.08-3.92,4.36-5.8,6.65s-3.57,4.74-5.27,7.19-3.39,5-4.92,7.45l-.69,1.12-.93,0-10-.35c-3.33-.06-6.65-.06-10,0s-6.64.36-10,.68l-5,.51c-.83.09-1.6.21-2.4.31s-1.59.21-2.39.34c-6.36,1-12.82,2-19.3,3.12s-13,2.21-19.7,2.94Z"/><path class="cls-4" d="M149.95,269.52A47.25,47.25,0,0,1,162.88,263a55.2,55.2,0,0,1,7-1.9c1.19-.25,2.4-.45,3.61-.6s2.34-.24,3.52-.32c4.68-.32,9.48-.13,14.17-.63a74.43,74.43,0,0,0,13.84-2.92l-1.1.91c.24-.73.45-1.28.69-1.9l.72-1.78c.5-1.17,1-2.35,1.55-3.48,1.08-2.29,2.3-4.49,3.58-6.66s2.51-4.3,4-6.53c.76-1.08,1.59-2.09,2.41-3.12s1.74-1.94,2.64-2.87a68.34,68.34,0,0,1,12.1-9.44c1.06-.7,2.17-1.31,3.28-1.94s2.22-1.22,3.37-1.76a52.25,52.25,0,0,1,7-2.92l.29.52c-3.73,3.39-7.48,6.61-11.09,9.93s-7.11,6.65-10.38,10.1l-2.42,2.6c-.74.9-1.56,1.76-2.28,2.67-1.42,1.76-2.91,3.78-4.33,5.79s-2.85,4-4.31,6l-2.18,3c-.69,1-1.43,2.05-2,3l-.52.86-.58,0a95.09,95.09,0,0,0-14.05,2c-4.62,1.06-9.15,2.71-13.82,3.67-1.16.24-2.37.43-3.5.61l-3.39.48q-3.39.51-6.8,1.14c-4.55.82-9.12,1.77-13.85,2.61Z"/><path class="cls-4" d="M173.33,277.93a24.36,24.36,0,0,1,8.26-6.72,33.77,33.77,0,0,1,4.9-2.1,22.45,22.45,0,0,1,2.57-.72c.43-.1.87-.18,1.31-.25s.82-.11,1.23-.17c3.27-.36,6.76-.48,10-1.57a29.09,29.09,0,0,0,8.8-4.81l-.52.44c.84-1.47,1.69-2.94,2.63-4.34s2-2.72,3-4.06a79.13,79.13,0,0,1,6.46-7.65,84.14,84.14,0,0,1,7.45-6.69,59.4,59.4,0,0,1,8.42-5.69l.42.42a75.38,75.38,0,0,1-5.44,8.53c-2,2.7-4,5.28-6.16,7.77s-4.52,4.77-6.85,7.09c-1.16,1.16-2.31,2.34-3.51,3.47s-2.44,2.22-3.7,3.32l-.49.43h0a98.91,98.91,0,0,0-9.77,3.54c-3.15,1.34-6.12,3.34-9.45,4.61-.41.14-.84.31-1.24.44s-.77.26-1.16.37c-.78.22-1.55.46-2.34.65l-4.69,1.34-9.68,2.86Z"/><path class="cls-4" d="M272.77,425.08c51.42-5.73,90-38.46,113.4-64.91a276.37,276.37,0,0,0,38.73-56.57l-1-.49a275.21,275.21,0,0,1-38.57,56.32c-23.21,26.29-61.6,58.82-112.65,64.51Z"/><path class="cls-4" d="M424.79,276.47a64.76,64.76,0,0,0-11.11,12.26c-3.15,4.52-6.11,9.27-7.56,14.91a48.71,48.71,0,0,0-1.18,8.5c-.19,2.78-.43,5.5-.7,8.22s-.61,5.44-1,8.17-.72,5.45-.95,8.28l-.29,3.64,4-1.53c4-1.53,7.9-3.35,11.87-5s7.89-3.27,11.76-5,7.71-3.55,11.6-5.11c1.94-.82,3.9-1.54,5.88-2.15a16.11,16.11,0,0,1,6.08-.9l.26-.64c-2-1.36-4.45-1.64-6.72-1.75a38.47,38.47,0,0,0-6.81.48A73.7,73.7,0,0,0,427,322.28a87.05,87.05,0,0,0-12,5.45,119.59,119.59,0,0,0-11.36,6.71l3.72,2.11a68,68,0,0,1-1.08-16,35.21,35.21,0,0,1,1.44-7.88,36,36,0,0,1,3.08-7.17c2.65-4.41,5.08-9.11,7.57-13.84a147.89,147.89,0,0,0,7-14.76Z"/><path class="cls-4" d="M452.05,328a122.89,122.89,0,0,0-13.91,3.86q-6.78,2.26-13.37,4.88c-4.39,1.76-8.55,4.1-12.88,6.06a38.69,38.69,0,0,1-6.65,2.36,22.86,22.86,0,0,1-3.41.58,8.53,8.53,0,0,1-3.13-.23l.81,1.06c0-3.17.13-6.3.09-9.49,0-1.59-.06-3.19-.16-4.8,0-.81-.14-1.61-.23-2.42l-.16-1.21-.12-1.06a54.4,54.4,0,0,1-.18-8.72c.14-3,.47-5.93.85-8.85a76.37,76.37,0,0,1,1.55-8.52,24.32,24.32,0,0,1,1.27-3.78,38.76,38.76,0,0,1,2-3.72c3.14-5,7-9.89,10.72-15l-.45-.52a60,60,0,0,0-7.83,5.41,56.24,56.24,0,0,0-7,6.63,31.8,31.8,0,0,0-3.1,4,25.59,25.59,0,0,0-2.26,4.84,43.7,43.7,0,0,0-2.18,9.72,63.29,63.29,0,0,0-.31,9.74,50.12,50.12,0,0,0,1.23,9.82c.11.41.22.86.34,1.23l.33,1.06.63,2.16c.43,1.45.81,2.92,1.16,4.41a61.19,61.19,0,0,1,1.52,9.07l.07.89.74.17a13,13,0,0,0,4,.11c1.24-.15,2.45-.33,3.65-.54l7.18-1.3a80.51,80.51,0,0,0,14.11-3.5,114.06,114.06,0,0,0,13.13-6,83,83,0,0,0,12.25-7.85Z"/><path class="cls-4" d="M392.45,285a57.56,57.56,0,0,0-4.52,8.06,74.9,74.9,0,0,0-3.4,8.58c-.48,1.47-.94,2.94-1.31,4.44s-.74,3-1,4.54c-.17.76-.3,1.53-.4,2.31s-.2,1.55-.29,2.33a43.58,43.58,0,0,0-.13,4.74,32.39,32.39,0,0,0,.51,4.77,23.51,23.51,0,0,0,.47,2.37l.67,2.34c.43,1.49,1,2.85,1.37,4.31s.76,2.89,1.08,4.35a59.78,59.78,0,0,1,.84,17.74l-.22,2.06h2.49c2.83,0,5.69,0,8.52,0l8.5-.25c5.66-.15,11.31-.24,16.93-.59l16.85-1.06c2.8-.16,5.6-.28,8.4-.33a50.19,50.19,0,0,1,8.38.43l.26-.64a28.14,28.14,0,0,0-8.22-3.22,73.64,73.64,0,0,0-8.61-1.57,128,128,0,0,0-17.28-.9,159.83,159.83,0,0,0-17.16,1.28c-2.85.34-5.69.66-8.52,1.1s-5.65,1-8.48,1.62l2.27,2.07c-.16-1.64-.4-3.11-.65-4.65l-.77-4.52c-.51-3-1-6-1.47-9s-.83-6-1.11-9l-.07-2.12a21.25,21.25,0,0,1,.1-2.13c0-1.41.31-2.84.46-4.25.78-5.66,1.69-11.43,2.83-17.24s2.37-11.66,3.34-17.73Z"/><path class="cls-4" d="M357.66,294.84a160.17,160.17,0,0,0,4.55,18.6q1.35,4.55,2.85,9t3.22,8.88c1.17,2.92,2.5,5.79,3.62,8.68s2.19,6,3.06,9a137.07,137.07,0,0,1,3.85,18.68L379,369l1.6.18c3.16.36,6.32.81,9.48,1.09s6.32.5,9.48.71,6.32.41,9.48.56,6.39.21,9.27.43a113.41,113.41,0,0,1,18,3.12c6,1.49,12,3.36,18.12,5.31l.34-.6a60.73,60.73,0,0,0-8-5.46c-1.39-.83-2.82-1.59-4.27-2.32s-2.91-1.44-4.42-2.06-3-1.23-4.55-1.82-3.1-1.08-4.69-1.5a61.08,61.08,0,0,0-9.77-2,91.18,91.18,0,0,0-9.74-.31c-3.18,0-6.37.08-9.55.14s-6.36.09-9.55.28-6.37.45-9.54.67l1.77,1.39a136.27,136.27,0,0,1-5.3-18.27c-.66-3.12-1.08-6.23-1.54-9.45a91.78,91.78,0,0,0-1.86-9.53,81.14,81.14,0,0,0-2.92-9.12q-1.66-4.48-3.59-8.85a122.87,122.87,0,0,0-8.89-17Z"/><path class="cls-4" d="M274.94,388.27a24.76,24.76,0,0,0-1,10.08,21.15,21.15,0,0,0,2.83,9.57c.89,1.46,1.93,2.84,2.89,4.22s1.82,2.78,2.67,4.2,1.72,2.87,2.72,4.34a15.76,15.76,0,0,0,3.85,4l-1.44-2a18.67,18.67,0,0,0,.31,3.87c.22,1.24.48,2.47.82,3.68a21.11,21.11,0,0,0,3.2,6.86,21.6,21.6,0,0,0,5.45,5.35,15.73,15.73,0,0,0,7.05,2.7l.34-.6c-1.42-2.06-2.71-3.84-3.8-5.71s-2.08-3.66-3-5.51l-2.77-5.56c-.46-.95-.9-1.91-1.28-2.9s-.77-2-1.14-2.89l-.81-1.87-.63-.15a13,13,0,0,1-3.88-1.61,11.46,11.46,0,0,1-3.26-3.15,12.76,12.76,0,0,1-1.92-4.23,33.19,33.19,0,0,1-.67-4.72,38.94,38.94,0,0,0-2.13-9,51.39,51.39,0,0,0-3.76-9Z"/><path class="cls-4" d="M440.2,408.09a37.92,37.92,0,0,0-4.39-9.73,47.7,47.7,0,0,0-6.66-8.43,51.54,51.54,0,0,0-8.41-6.84,36.55,36.55,0,0,0-9.95-4.44,71.48,71.48,0,0,0-10.49-1.91c-3.49-.45-6.94-.78-10.38-1.26-6.9-.8-13.68-2-20.73-2.71l2.18,2.71a23.94,23.94,0,0,0,.54-2.64,22.93,22.93,0,0,0,.26-2.54,32.31,32.31,0,0,0-.06-5.07,43.83,43.83,0,0,0-2.12-9.86,52,52,0,0,0-4.12-9.09,91.16,91.16,0,0,0-5.22-8.05c-3.67-5.13-7.49-9.94-11-15-1.76-2.5-3.34-5.08-4.88-7.73a79.66,79.66,0,0,1-4-8.37l-.67.14a39.64,39.64,0,0,0,1.53,9.55,62.13,62.13,0,0,0,3.47,9.06,144.33,144.33,0,0,0,9.53,16.43c3.35,5.23,6.79,10.15,9.05,15.43a44.19,44.19,0,0,1,3.15,12.6c.07.72.1,1.44.13,2.16s0,1.49,0,2l-.14,2.91,2.32-.21c3.34-.3,6.8-.5,10.22-.48a75,75,0,0,1,10.23.76,67.07,67.07,0,0,1,19.27,6.21q1.11.55,2.22,1.07c.74.35,1.42.76,2.14,1.13s1.43.72,2.12,1.16l2.11,1.21a76.19,76.19,0,0,1,8,5.66,91.74,91.74,0,0,1,14.1,14.4Z"/><path class="cls-4" d="M425,417.39a38.37,38.37,0,0,0-4.51-8.73,51.88,51.88,0,0,0-6.28-7.6,46.79,46.79,0,0,0-16.4-11,41.47,41.47,0,0,0-4.75-1.48c-1.6-.41-3.16-.74-4.73-1.11L379,385.4c-3.12-.71-6.24-1.43-9.42-2-1.6-.27-3.19-.6-4.83-.77-.82-.11-1.65-.19-2.49-.24-.42,0-.85,0-1.29,0a11,11,0,0,0-1.44.07l2.28,1.37c-.59-3-1.2-6-2-9s-1.69-5.89-2.61-8.81a107.41,107.41,0,0,0-6.87-17.22c-.7-1.39-1.53-2.77-2.34-4.12s-1.54-2.49-2.29-3.77c-1.5-2.54-3-5.1-4.44-7.72l-8.69-15.91-.65.21a93.17,93.17,0,0,0,4.49,17.92c1,2.91,2.16,5.79,3.47,8.61.63,1.42,1.34,2.81,2.05,4.2s1.3,2.56,1.91,3.89c2.47,5.27,4.92,10.71,7.25,16.22l3.4,8.33,3.52,8.31.82,1.93,1.47-.56a6.79,6.79,0,0,1,.92-.22c.36-.06.72-.12,1.09-.17.74-.09,1.5-.17,2.27-.19a41,41,0,0,1,4.64.09,48.79,48.79,0,0,1,9.23,1.7,60.78,60.78,0,0,1,8.83,3.31c1.41.7,2.86,1.36,4.23,2.07s2.69,1.47,4,2.23c2.62,1.55,5.2,3.09,7.75,4.73s5,3.4,7.41,5.3a132.4,132.4,0,0,1,13.79,12.62Z"/><path class="cls-4" d="M421,427.06a66.34,66.34,0,0,0-7.1-7.52,94.6,94.6,0,0,0-8-6.57,97.66,97.66,0,0,0-8.62-5.72c-1.49-.87-3-1.74-4.53-2.51-.77-.39-1.54-.78-2.33-1.14l-2.39-1c-6.45-2.64-13.22-4.06-19.85-5.73-3.32-.82-6.62-1.67-10-2.43-1.67-.38-3.35-.74-5.05-1.06a43.22,43.22,0,0,0-5.29-.75l1.7,1.74c.86-7.44,1.05-14.93-.53-22.44a43.57,43.57,0,0,0-3.71-11.12c-.46-1-.91-1.69-1.36-2.48L342.59,356c-.91-1.56-1.85-3.11-2.8-4.65q-5.71-9.22-12-18.08c-4.2-5.91-8.51-11.74-13.27-17.29l-.58.36c2.72,6.81,5.89,13.34,9.17,19.8s6.75,12.8,10.42,19c.93,1.55,1.85,3.1,2.81,4.63l1.44,2.29c.48.76,1,1.55,1.36,2.21a38.63,38.63,0,0,1,3.77,9.18,100.07,100.07,0,0,1,2.17,10.21,86.93,86.93,0,0,1,1.2,10.55l.09,1.95,1.61-.21a17.79,17.79,0,0,1,2.36-.09c.82,0,1.65,0,2.48.09a49.1,49.1,0,0,1,5,.62,58.53,58.53,0,0,1,9.7,2.59c6.31,2.3,12.25,5.66,18,8.78l8.77,4.65c2.93,1.56,5.82,3.19,8.73,4.84,5.81,3.3,11.56,6.76,17.49,10.18Z"/><path class="cls-4" d="M407.86,441.38a79.78,79.78,0,0,0-7.07-7.82c-2.48-2.48-5.13-4.78-7.83-7A86,86,0,0,0,375.19,415a49,49,0,0,0-5-2c-1.67-.55-3.35-1-5-1.51L355,408.68c-3.34-1-6.65-2-9.92-3.18s-6.53-2.33-9.83-3.53l1,1.9c1.46-4.16,1.26-8.47.69-12.49a29.75,29.75,0,0,0-.57-3c-.2-1-.47-2-.73-2.94s-.57-1.93-.9-2.87-.62-1.91-1-2.82c-1.41-3.73-3-7.34-4.74-10.87s-3.57-7-5.59-10.34a179.69,179.69,0,0,0-13.41-19.12,161.55,161.55,0,0,0-15.66-17.26l-.54.43c3.76,6.82,7.73,13.42,11.65,20l11.66,19.73c3.83,6.55,7.77,13.05,10.9,19.86.41.85.77,1.7,1.15,2.55s.75,1.71,1.07,2.57c.74,1.71,1.35,3.45,1.92,5.18,1.11,3.46,1.86,7.09,1.22,10.46l-.31,1.61,1.32.29c3.35.73,6.72,1.59,10,2.64a92.1,92.1,0,0,1,9.72,3.55c3.18,1.36,6.28,2.89,9.36,4.47l4.6,2.35c1.46.83,2.93,1.55,4.38,2.41,2.92,1.61,5.83,3.32,8.73,5s5.78,3.57,8.66,5.41c5.79,3.65,11.5,7.51,17.49,11.14Z"/><path class="cls-4" d="M397.76,455.89A121.78,121.78,0,0,0,381,440.31c-3-2.31-6.12-4.56-9.36-6.62a62,62,0,0,0-10.22-5.43,57.4,57.4,0,0,0-5.51-2l-5.42-1.65c-3.61-1.13-7.17-2.39-10.63-3.86s-6.87-3.09-10.22-4.82-6.63-3.64-9.86-5.52l1.23,1.85a94.39,94.39,0,0,0-2.24-21.31c-1.54-7-3.59-14-7.23-20.43-.45-.79-.89-1.64-1.36-2.37l-1.39-2.21c-.92-1.48-1.88-2.93-2.82-4.39-1.88-2.93-3.83-5.81-5.79-8.69-4-5.73-8-11.41-12.48-16.83l-.59.35c2.54,6.58,5.5,12.89,8.53,19.17,1.54,3.12,3.09,6.24,4.72,9.31.81,1.54,1.59,3.09,2.43,4.61l1.24,2.29,1.13,2.21c.77,1.43,1.39,3,2.1,4.46s1.31,3,1.86,4.62c1.25,3.09,2.22,6.32,3.19,9.55s1.69,6.56,2.41,9.9,1.4,6.72,1.93,10l.24,1.48,1,.37,10.68,4c3.52,1.37,7,2.81,10.46,4.34s6.82,3.25,10.17,5l5,2.69c.83.45,1.6.91,2.39,1.36s1.58.91,2.36,1.39c6.23,3.85,12.59,7.68,18.93,11.65s12.72,8,19.42,11.63Z"/><path class="cls-4" d="M358.22,452.08a53.54,53.54,0,0,0-10.75-12.51,62.33,62.33,0,0,0-6.57-5.05c-1.14-.78-2.32-1.51-3.53-2.2s-2.35-1.27-3.55-1.86c-4.78-2.36-9.9-4.23-14.62-6.79a84,84,0,0,1-13.27-9.07l.76,1.43c.07-.88.08-1.55.1-2.31l0-2.2c0-1.46,0-2.92-.11-4.36-.14-2.89-.46-5.75-.86-8.6s-.76-5.64-1.41-8.67c-.33-1.47-.76-2.9-1.17-4.35s-1-2.8-1.53-4.18a77.75,77.75,0,0,0-8.61-15.23c-.81-1.2-1.71-2.33-2.6-3.47s-1.8-2.25-2.77-3.32a59.12,59.12,0,0,0-6.12-6.14l-.54.43c2.45,5.21,5,10.24,7.33,15.31s4.57,10.11,6.51,15.18l1.41,3.8c.38,1.28.87,2.54,1.24,3.81.73,2.47,1.41,5.26,2,8s1.24,5.48,1.92,8.21l1,4.08c.31,1.33.61,2.79.79,4l.17,1.14.59.3A107.26,107.26,0,0,1,318,425.67c4.39,3.12,8.43,6.82,12.93,9.86,1.11.76,2.3,1.48,3.42,2.16l3.35,2q3.34,2,6.65,4.14c4.43,2.84,8.81,5.81,13.42,8.75Z"/><path class="cls-4" d="M330,450.88a27.73,27.73,0,0,0-5.75-10.69,38.24,38.24,0,0,0-4.23-4.34,25.36,25.36,0,0,0-2.39-1.87c-.41-.29-.84-.56-1.27-.83s-.81-.47-1.22-.72c-3.29-1.79-6.9-3.44-9.78-6a33,33,0,0,1-7.15-8.9l.36.69c-.24-1.92-.5-3.85-.87-5.73s-.88-3.73-1.35-5.59a90.46,90.46,0,0,0-3.45-10.9,95.87,95.87,0,0,0-4.92-10.31,67.46,67.46,0,0,0-6.37-9.67l-.63.27a86.42,86.42,0,0,0,2,11.39c.88,3.7,1.92,7.32,3.09,10.89s2.67,7,4.11,10.47c.72,1.73,1.4,3.48,2.18,5.19s1.6,3.41,2.44,5.11l.33.66,0,0a111.83,111.83,0,0,1,8.73,8c2.72,2.78,5,6.18,7.92,9,.37.33.75.7,1.11,1s.69.61,1.06.89c.72.57,1.43,1.16,2.17,1.7l4.34,3.44,8.93,7.21Z"/><path class="cls-4" d="M293.52,323s.38-25.39,5.54-36.93a65.23,65.23,0,0,1,14.16-19.61l5.17,15.88s-3.15-23.61,2.49-36.35c13.36-30.15,35-32.05,35-32.05L363,240s-5.49-28.48,2.06-33.1,18.38-14.09,18.38-14.09l5.37,16.9L391,188.2s19.17-10,28.32-11.79l14.24-2.74-6.91,29.81-23,6.54,20.7,3.4-9.11,23.91-28.48,5.49L416,246.69s-10.71,21.05-22.33,26.46-37.44,8.27-37.44,8.27l30.87,1.44s-7,18.23-24.17,27.86S293.52,323,293.52,323Z"/><path class="cls-3" d="M372.17,239.58l6-6.46,29.36-7.95-.24-.9-27.93,7.56,1.48-1.6,17.31-18.71c11.54-12.47,23.05-25,34.39-37.66C420.09,185.49,408,197.43,396,209.54c-6,6-11.87,12.17-17.77,18.3-1.21,1.27-2.41,2.56-3.62,3.84l.12-25.85h-.93l-.13,26.84q-6.48,6.87-12.89,13.8c-2.85,3.16-5.73,6.29-8.54,9.49l-4.24,4.78-4.17,4.85-.29.34-2.33-32.86-.93.07L342.74,267c-1,1.18-2,2.38-2.94,3.58l-4,5q-2,2.48-4,4.93c-1.34,1.64-2.68,3.28-4,4.9q-5.09,6-10.33,12l-6-18.62-.88.28,6.15,19.15Q305.42,310.8,293.52,323c8.32-7.13,16.29-14.67,24-22.52l.12.37,56-9.41-.15-.92-55.24,9.27,0-.08q6-6.15,11.72-12.53c5.75-6.3,11.05-13,16.62-19.33l.81-.92,44.06-7.24-.15-.92-42.94,7.05c5-5.7,10.12-11.3,15.24-16.89Z"/><path class="cls-4" d="M221.75,389.6s1.86-25.33-2.27-37.29a65.24,65.24,0,0,0-12.38-20.78l-6.55,15.37s8.12-24.62.72-36.43-32-35-32-35l-9.4,25.33s8-27.89.86-33.16S143.66,252,143.66,252l-6.84,16.36-.28-21.63S118.33,235,109.36,232.45l-13.95-4,4.26,30.31L122,267.32l-20.92,1.56,7,24.62,27.89,8-29.46,1.27s8.82,21.92,19.92,28.33S163,342.62,163,342.62l-30.88-1.29s5.4,18.79,21.62,29.89S221.75,389.6,221.75,389.6Z"/><path class="cls-3" d="M150.75,299.53l-5.4-7L116.8,282.06l.32-.87,27.16,10-1.33-1.72L127.35,269.3c-10.4-13.45-20.77-26.91-30.94-40.56,11.36,12.67,22.37,25.64,33.2,38.75,5.44,6.53,10.76,13.18,16.09,19.8,1.1,1.37,2.18,2.76,3.27,4.14l2.15-25.77.92.08-2.24,26.76q5.85,7.41,11.63,14.89c2.56,3.4,5.15,6.77,7.67,10.21l3.8,5.14,3.72,5.2.25.36,5.21-32.54.92.15-5.36,33.48q1.32,1.9,2.61,3.82l3.56,5.3q1.75,2.65,3.55,5.26c1.19,1.76,2.38,3.51,3.6,5.24q4.54,6.46,9.23,12.82l7.6-18,.86.36-7.82,18.54Q211,376.38,221.75,389.6c-7.67-7.83-14.94-16.05-21.88-24.55l-.15.36-55-14.31.23-.9,54.22,14.11,0-.08q-5.41-6.66-10.57-13.52c-5.18-6.78-9.86-13.95-14.86-20.73l-.72-1-43.26-11.09.23-.9,42.16,10.81c-4.47-6.11-9.08-12.15-13.69-18.18Z"/><path class="cls-4" d="M291.32,266.94s-8.21-17-8.64-26.32a48.38,48.38,0,0,1,2.84-17.71l8.72,8.8S281.91,217,283.77,206.79s12.48-32.9,12.48-32.9l13.41,14.89s-13.13-17-9.67-22.62,7.48-15.47,7.48-15.47l9.19,9.41-5.73-15s9.36-13,14.84-17.25l8.52-6.57,5.36,22.06-13.06,12,14.85-4.65,1.94,18.88-17,13.13L347,175.54s-.08,17.52-6,25-22.05,18-22.05,18l20.93-9.34s1.42,14.43-6.72,26.52S291.32,266.94,291.32,266.94Z"/><path class="cls-3" d="M315.61,185.43l1.81-6.28,16.8-15.06-.46-.51-16,14.32.45-1.55,5.23-18.17c3.49-12.11,6.95-24.24,10.23-36.42-4.36,11.84-8.4,23.79-12.27,35.8-2,6-3.81,12-5.68,18.05-.38,1.25-.75,2.5-1.12,3.75l-8.54-17.17-.62.31,8.86,17.83q-2,6.71-3.94,13.44c-.83,3-1.7,6.08-2.49,9.14l-1.21,4.58-1.14,4.6-.08.32-12.5-21-.59.35,12.86,21.61c-.26,1.11-.51,2.23-.76,3.35l-1,4.63q-.48,2.3-1,4.6c-.34,1.53-.68,3.07-1,4.59q-1.36,5.7-2.86,11.36l-10.17-10.35-.49.48,10.46,10.64q-3.23,12.19-7,24.25c3.14-7.5,5.9-15.15,8.37-22.91l.2.21,34-24.92-.41-.56L300,243.33l0,0q1.91-6.07,3.59-12.21c1.71-6.09,3-12.31,4.57-18.35l.23-.88,26.78-19.49-.41-.56-26.1,19c1.41-5.44,2.94-10.86,4.46-16.28Z"/><path class="cls-4" d="M245,423.9s-12.15-22.3-22.09-30.12A65.24,65.24,0,0,0,201.24,383L204,399.47s-6.5-25.09-19.12-31-45.87-12.11-45.87-12.11l5.81,26.39s-8.39-27.77-17.22-28.35-22.83-3.92-22.83-3.92l3.11,17.46L96,349.87s-21.63,0-30.56,2.74l-13.89,4.2,20,23.18,23.41-4.91L78.19,387.72l19.19,16.93,27.77-8.39-24.08,17s19.28,13.66,32.08,13,37-10.1,37-10.1l-26.66,15.63s14.71,12.87,34.36,13.43S245,423.9,245,423.9Z"/><path class="cls-3" d="M136.53,386.61l-8.31-2.94L98.53,390.3l-.2-.91,28.24-6.3-2.05-.73-24-8.51c-16-5.68-32-11.39-48-17.35,16.41,4.5,32.69,9.45,48.89,14.61,8.11,2.55,16.18,5.26,24.25,7.93l5,1.71-12.14-22.83.82-.44,12.6,23.71q8.93,3.07,17.83,6.22c4,1.48,8,2.91,12,4.43l6,2.26,5.95,2.36.41.17-13.23-30.18.85-.37,13.62,31.06c1.43.59,2.85,1.19,4.27,1.8l5.86,2.53q2.91,1.28,5.84,2.5c1.95.83,3.9,1.66,5.86,2.45q7.31,3,14.7,5.78l-3.37-19.27.91-.16,3.46,19.82q15.91,6,32.12,11.3c-10.69-2.44-21.25-5.41-31.69-8.79l.07.38-54,17.74-.29-.88,53.23-17.49v-.08q-8.15-2.67-16.2-5.64c-8-2.9-15.84-6.39-23.71-9.39l-1.14-.44L128.86,413.4l-.29-.88,41.31-13.73c-7.07-2.72-14.21-5.3-21.35-7.87Z"/><circle class="cls-5" cx="383.01" cy="134.98" r="3.35"/><circle class="cls-5" cx="30.54" cy="317.5" r="3.35"/><circle class="cls-5" cx="379.24" cy="68.43" r="5.44"/><circle class="cls-5" cx="442.45" cy="115.73" r="2.51"/><circle class="cls-5" cx="437.43" cy="49.59" r="2.51"/><circle class="cls-5" cx="471.75" cy="406.24" r="2.51"/><circle class="cls-5" cx="38.92" cy="415.45" r="2.51"/><circle class="cls-5" cx="456.26" cy="213.26" r="6.28"/><circle class="cls-5" cx="463.38" cy="273.96" r="5.02"/><circle class="cls-5" cx="437.43" cy="454.8" r="5.02"/><circle class="cls-5" cx="115.94" cy="96.47" r="5.44"/><circle class="cls-5" cx="54.63" cy="84.11" r="4.41"/><circle class="cls-5" cx="60.68" cy="170.98" r="5.86"/><circle class="cls-5" cx="95.85" cy="455.63" r="5.86"/><circle class="cls-5" cx="100.45" cy="46.66" r="2.09"/><circle class="cls-5" cx="39.75" cy="227.5" r="2.09"/><path class="cls-6" d="M210.17,147.64s1.86,63.26-14.51,74.79-19,27.16-7.07,40.93c15.79,18.26,130.6,3.72,141-1.86s11.16-22,3.35-30.14c-12.54-13.14-21.21-19.35-26.42-33.86-2.59-7.22-21.21-64-21.21-64Z"/><path class="cls-6" d="M282.54,124.38l5.26,15.15q2.63,7.58,5.33,15.13c3.61,10.06,7.23,20.12,11.22,30,2,5,4,9.91,6.3,14.71a48,48,0,0,0,3.87,6.92c.75,1,1.71,2,2.59,3l2.73,2.93c3.66,3.89,7.44,7.69,10.93,11.75a64.59,64.59,0,0,1,4.88,6.39,21.82,21.82,0,0,1,3.28,7.29,22.65,22.65,0,0,0-3.5-7.15,64.24,64.24,0,0,0-5-6.21c-3.55-4-7.38-7.71-11.12-11.54-1.86-1.94-3.75-3.78-5.46-5.95a48.74,48.74,0,0,1-4-7c-2.35-4.83-4.4-9.77-6.41-14.74-3.91-10-7.56-20-11-30.15S285.64,134.62,282.54,124.38Z"/><path class="cls-6" d="M212,147.26c-.13,8.51-.68,17-1.57,25.48A195.59,195.59,0,0,1,206.26,198a80.43,80.43,0,0,1-3.87,12.22,39.84,39.84,0,0,1-2.91,5.75,23.53,23.53,0,0,1-1.9,2.64,21.6,21.6,0,0,1-2.29,2.3c-3.15,2.88-6.5,5.52-9.7,8.29a18.86,18.86,0,0,0-4.22,4.64,5.87,5.87,0,0,0-.69,3,11.7,11.7,0,0,0,.62,3.1,11.29,11.29,0,0,1-.8-3.09,6.13,6.13,0,0,1,.59-3.16,18,18,0,0,1,4.14-4.91c3.17-2.86,6.39-5.63,9.5-8.51,3.21-2.72,5.19-6.54,6.8-10.42a90.34,90.34,0,0,0,3.81-12.09,220.61,220.61,0,0,0,4.38-25.07Q211.24,160,212,147.26Z"/><path class="cls-6" d="M195.47,431.36l-7.55,12.46s-12.55,36.1-13.1,58.42,171.91,3.35,171.91,3.35l-12.84-67Z"/><path class="cls-7" d="M341.53,290.44c0-37-36-67-80.37-67s-80.37,30-80.37,67c0,0,27,44.91,23.06,83.05-2.18,21.31-15.92,70.32-15.92,70.32a327,327,0,0,0,147.47-.46s-19.55-72.09-21-79.53C313.61,333.68,341.53,290.44,341.53,290.44Z"/><g class="cls-8"><path class="cls-9" d="M222.82,226s5.77,28,15,36.31,18.48-7.39,18.48-7.39,11.09,12.93,18.94,10.62S297,235,296,227.62"/><circle class="cls-6" cx="256.66" cy="268.38" r="2.22"/><circle class="cls-6" cx="256.66" cy="285.4" r="2.22"/></g><path class="cls-10" d="M239,193.21s-1.62,29.79-6.24,34.87c0,0,5.54,23.56,27,23.1s27.71-24,27.71-24c-.2.49-14.95-37.37-15.94-44.11C270.83,178.13,239,193.21,239,193.21Z"/><g class="cls-11"><path class="cls-6" d="M228.45,164.78c0,26.79,11.9,44.34,26.57,44.34s26.57-17.56,26.57-44.34-11.72-39-26.4-39S228.45,138,228.45,164.78Z"/></g><path class="cls-6" d="M220.4,115s-23.07-7.81-27.16,16.37c-3,17.63,18.6,24.56,18.6,24.56Z"/><path class="cls-10" d="M212.73,163c4.83,26.35,24.52,40.59,44.9,36.85s33.74-24,28.91-50.38-23.32-35.41-43.7-31.67S207.9,136.65,212.73,163Z"/><path class="cls-6" d="M253.26,170.28h-.06l-6.69-.65a.62.62,0,0,1-.21-1.18,2.72,2.72,0,0,0,1.61-1.84c.61-2.51-2-6.07-2.06-6.11a.62.62,0,0,1,1-.75c.12.17,3,4.07,2.27,7.15a3.71,3.71,0,0,1-.87,1.65l5.07.49a.62.62,0,0,1-.06,1.24Z"/><path class="cls-6" d="M254.53,145.19a1.24,1.24,0,0,1-.9-2.09c5.1-5.43,10.94-2.64,13.31-.41a1.24,1.24,0,0,1-1.7,1.81c-.52-.48-5.22-4.58-9.81.3A1.24,1.24,0,0,1,254.53,145.19Z"/><path class="cls-6" d="M227.58,151.89a1.24,1.24,0,0,1-1.12-1.79,11.45,11.45,0,0,1,3.07-3.67c1.93-1.48,5.15-2.8,9.52-.67A1.24,1.24,0,1,1,238,148c-6.16-3-9.15,2.94-9.27,3.19A1.24,1.24,0,0,1,227.58,151.89Z"/><ellipse class="cls-6" cx="233.93" cy="159.19" rx="2.21" ry="3.85" transform="translate(-26.06 47.52) rotate(-10.99)"/><ellipse class="cls-6" cx="260.89" cy="153.96" rx="2.21" ry="3.85" transform="translate(-24.57 52.56) rotate(-10.99)"/><path class="cls-9" d="M244.47,176.58a114.74,114.74,0,0,1,14.79-2.7s.83,10.55-6.15,11.47S244.47,176.58,244.47,176.58Z"/><circle class="cls-10" cx="288.38" cy="151.94" r="10.56" transform="translate(-22.67 54.48) rotate(-10.39)"/><path class="cls-6" d="M286.37,156.79a.5.5,0,0,1-.32-.12,6.58,6.58,0,0,1,3.68-11.58,6.5,6.5,0,0,1,4.8,1.52.5.5,0,0,1-.64.76,5.58,5.58,0,0,0-8,7.66,6.37,6.37,0,0,1,1.43-3.81,5.48,5.48,0,0,1,4.3-1.69.51.51,0,0,1,.53.5.5.5,0,0,1-.5.5h0a4.53,4.53,0,0,0-3.56,1.36,6.22,6.22,0,0,0-1.17,4.34.5.5,0,0,1-.26.5A.49.49,0,0,1,286.37,156.79Z"/><circle class="cls-10" cx="211.9" cy="165.96" r="10.56" transform="translate(-26.45 40.92) rotate(-10.39)"/><path class="cls-6" d="M215.32,169.81h-.07a.5.5,0,0,1-.42-.37,6.25,6.25,0,0,0-2.64-3.65,4.55,4.55,0,0,0-3.83,0,.5.5,0,0,1-.36-.93,5.49,5.49,0,0,1,4.66,0,6.38,6.38,0,0,1,2.69,3.06,5.58,5.58,0,0,0-10.22-4.31.5.5,0,0,1-.87-.48,6.58,6.58,0,1,1,11.49,6.4A.5.5,0,0,1,215.32,169.81Z"/><path class="cls-6" d="M209.54,155.13l6.16,5.44s.17-21.27,6-31.73c0,0,15.63,21.21,55.38,11.79,2.93-.69,5,9.41,5,9.41s4.6-8.12,6.62-8.73c0,0-4.17-42-47-36C201.47,110.93,209.54,155.13,209.54,155.13Z"/><ellipse class="cls-9" cx="215.21" cy="178.39" rx="4.39" ry="4.27" transform="translate(-28.63 41.72) rotate(-10.39)"/><ellipse class="cls-9" cx="289.72" cy="164.73" rx="4.39" ry="4.27" transform="translate(-24.95 54.93) rotate(-10.39)"/><path class="cls-6" d="M220.4,115a21.28,21.28,0,0,0-6.5-2.65,15.58,15.58,0,0,0-6.89-.13,14.81,14.81,0,0,0-6.15,3,21.59,21.59,0,0,0-4.58,5.17,25.83,25.83,0,0,0-3.09,6.21,22.74,22.74,0,0,0-1.09,6.84,23.46,23.46,0,0,0,1,6.89,25,25,0,0,0,2.89,6.41,23.61,23.61,0,0,1-4.71-13.3,23.29,23.29,0,0,1,4.12-13.61,22.54,22.54,0,0,1,4.85-5.33,14.65,14.65,0,0,1,6.56-3A18,18,0,0,1,220.4,115Z"/><rect class="cls-12" x="209.71" y="297.12" width="92.65" height="131.44"/><rect class="cls-13" x="209.71" y="297.12" width="9.56" height="131.44"/><path class="cls-10" d="M249.64,411.81c-13.78,5-21.45,5.83-21.45,5.83l-16.63,4.2a4.05,4.05,0,0,1-4.84-2.66h0a4.05,4.05,0,0,1,2.27-5l10.13-4.29L207.92,412a4.05,4.05,0,0,1-4.68-3l-.47-1.94a4.05,4.05,0,0,1,3.17-4.93l10.09-2-11.63-1.7a4.05,4.05,0,0,1-3.47-3.93l0-1.34a4.05,4.05,0,0,1,3.58-4.11l11.88-1.41-12.28-1.39a4.05,4.05,0,0,1-3.6-3.95l0-2.42a4.05,4.05,0,0,1,4.35-4.12l26.14,1.91-13.62-8.76a4.35,4.35,0,0,1-.71-7.27h0a4.34,4.34,0,0,1,4-.74c6.79,2.15,27.65,10.51,34.54,17.11C263.46,386,263.42,406.83,249.64,411.81Z"/><path class="cls-10" d="M341.15,285.12s20.37,105.21,16.46,115.81-112.46,10.33-112.46,10.33l1.12-35.72L314.64,368l-5.3-44.93Z"/><polygon class="cls-7" points="340.03 277.5 348.43 322.72 307.66 335.17 306.41 319.76 340.03 277.5"/><path class="cls-14" d="M332.78,364.94s-11.72,1.4-18.14,3.07"/><path class="cls-10" d="M180.32,284.74S158.08,362.15,157,358.8s-44.09-60.28-44.09-60.28L86.08,314.7s27.57,49.28,38.23,70.6c20.93,41.86,59.44,27.07,68.93-10.33s11.64-43.91,11.64-43.91Z"/><path class="cls-10" d="M82.45,313c-11.16-9.49-15.71-15.73-15.71-15.73l-12-12.51a3.82,3.82,0,0,1-.09-5.21l.28-.32a3.82,3.82,0,0,1,5.16-.48L69,285.58,57.34,269.1a3.82,3.82,0,0,1,.28-4.76h0a3.82,3.82,0,0,1,5.8.14l12.25,15-11.6-23.21a3.82,3.82,0,0,1,.72-4.41l.4-.4a3.82,3.82,0,0,1,5.84.52l15.89,22.58L77.77,252.6a3.82,3.82,0,0,1,2.43-5.08l.07,0a3.82,3.82,0,0,1,4.61,2.07l17.94,30.25.84-16.17a4.35,4.35,0,0,1,6-4.22h0a4.34,4.34,0,0,1,2.63,3.12c1.51,7,4.6,29.22,2.28,38.48C111.75,312.19,93.61,322.52,82.45,313Z"/><line class="cls-14" x1="172.59" y1="384.47" x2="156.96" y2="358.8"/><polygon class="cls-7" points="183.19 273.96 168.5 325.87 204.65 339.57 206.08 322.52 183.19 273.96"/><path class="cls-14" d="M67.66,291.26s14.88-14.51,26-16.74"/></g></g></svg>